solid 
   facet normal -1.000000e+00 1.224647e-16 -2.220446e-16
      outer loop
         vertex -1.178877e-15 -6.000000e+00 2.000000e+00
         vertex -7.347881e-16 -6.000000e+00 0.000000e+00
         vertex -4.408729e-15 -3.600000e+01 0.000000e+00
      endloop
   endfacet
   facet normal -1.000000e+00 1.964795e-16 0.000000e+00
      outer loop
         vertex 0.000000e+00 0.000000e+00 1.000000e+01
         vertex 0.000000e+00 0.000000e+00 2.000000e+00
         vertex -1.178877e-15 -6.000000e+00 2.000000e+00
      endloop
   endfacet
   facet normal -1.000000e+00 1.224647e-16 5.551115e-17
      outer loop
         vertex -1.178877e-15 -6.000000e+00 2.000000e+00
         vertex -5.143517e-15 -4.200000e+01 1.000000e+01
         vertex 0.000000e+00 0.000000e+00 1.000000e+01
      endloop
   endfacet
   facet normal -1.000000e+00 -2.321468e-16 1.226195e-16
      outer loop
         vertex -7.517353e-15 -3.600000e+01 2.000000e+00
         vertex -6.124472e-15 -4.200000e+01 2.000000e+00
         vertex -5.143517e-15 -4.200000e+01 1.000000e+01
      endloop
   endfacet
   facet normal -1.000000e+00 2.112825e-16 -1.554312e-15
      outer loop
         vertex -1.178877e-15 -6.000000e+00 2.000000e+00
         vertex -4.408729e-15 -3.600000e+01 0.000000e+00
         vertex -7.517353e-15 -3.600000e+01 2.000000e+00
      endloop
   endfacet
   facet normal -1.000000e+00 2.112825e-16 4.551915e-16
      outer loop
         vertex -7.517353e-15 -3.600000e+01 2.000000e+00
         vertex -5.143517e-15 -4.200000e+01 1.000000e+01
         vertex -1.178877e-15 -6.000000e+00 2.000000e+00
      endloop
   endfacet
   facet normal 0.000000e+00 1.000000e+00 -0.000000e+00
      outer loop
         vertex -6.000000e+00 -4.200000e+01 2.000000e+00
         vertex -6.000000e+00 -4.200000e+01 0.000000e+00
         vertex -5.100000e+01 -4.200000e+01 0.000000e+00
      endloop
   endfacet
   facet normal 0.000000e+00 1.000000e+00 -0.000000e+00
      outer loop
         vertex -5.143517e-15 -4.200000e+01 1.000000e+01
         vertex -6.124472e-15 -4.200000e+01 2.000000e+00
         vertex -6.000000e+00 -4.200000e+01 2.000000e+00
      endloop
   endfacet
   facet normal -0.000000e+00 1.000000e+00 0.000000e+00
      outer loop
         vertex -6.000000e+00 -4.200000e+01 2.000000e+00
         vertex -5.700000e+01 -4.200000e+01 1.000000e+01
         vertex -5.143517e-15 -4.200000e+01 1.000000e+01
      endloop
   endfacet
   facet normal 0.000000e+00 1.000000e+00 0.000000e+00
      outer loop
         vertex -5.100000e+01 -4.200000e+01 2.000000e+00
         vertex -5.700000e+01 -4.200000e+01 2.000000e+00
         vertex -5.700000e+01 -4.200000e+01 1.000000e+01
      endloop
   endfacet
   facet normal 0.000000e+00 1.000000e+00 0.000000e+00
      outer loop
         vertex -6.000000e+00 -4.200000e+01 2.000000e+00
         vertex -5.100000e+01 -4.200000e+01 0.000000e+00
         vertex -5.100000e+01 -4.200000e+01 2.000000e+00
      endloop
   endfacet
   facet normal 0.000000e+00 1.000000e+00 0.000000e+00
      outer loop
         vertex -5.100000e+01 -4.200000e+01 2.000000e+00
         vertex -5.700000e+01 -4.200000e+01 1.000000e+01
         vertex -6.000000e+00 -4.200000e+01 2.000000e+00
      endloop
   endfacet
   facet normal 1.000000e+00 0.000000e+00 0.000000e+00
      outer loop
         vertex -5.700000e+01 -4.200000e+01 1.000000e+01
         vertex -5.700000e+01 -4.200000e+01 2.000000e+00
         vertex -5.700000e+01 -3.600000e+01 2.000000e+00
      endloop
   endfacet
   facet normal 1.000000e+00 0.000000e+00 0.000000e+00
      outer loop
         vertex -5.700000e+01 -3.600000e+01 2.000000e+00
         vertex -5.700000e+01 6.980487e-15 1.000000e+01
         vertex -5.700000e+01 -4.200000e+01 1.000000e+01
      endloop
   endfacet
   facet normal 1.000000e+00 0.000000e+00 -0.000000e+00
      outer loop
         vertex -5.700000e+01 -6.000000e+00 2.000000e+00
         vertex -5.700000e+01 6.980487e-15 2.000000e+00
         vertex -5.700000e+01 6.980487e-15 1.000000e+01
      endloop
   endfacet
   facet normal 1.000000e+00 0.000000e+00 -0.000000e+00
      outer loop
         vertex -5.700000e+01 -3.600000e+01 2.000000e+00
         vertex -5.700000e+01 -6.000000e+00 0.000000e+00
         vertex -5.700000e+01 -6.000000e+00 2.000000e+00
      endloop
   endfacet
   facet normal 1.000000e+00 0.000000e+00 0.000000e+00
      outer loop
         vertex -5.700000e+01 -3.600000e+01 2.000000e+00
         vertex -5.700000e+01 -3.600000e+01 0.000000e+00
         vertex -5.700000e+01 -6.000000e+00 0.000000e+00
      endloop
   endfacet
   facet normal 1.000000e+00 0.000000e+00 0.000000e+00
      outer loop
         vertex -5.700000e+01 -6.000000e+00 2.000000e+00
         vertex -5.700000e+01 6.980487e-15 1.000000e+01
         vertex -5.700000e+01 -3.600000e+01 2.000000e+00
      endloop
   endfacet
   facet normal -1.224647e-16 -1.000000e+00 0.000000e+00
      outer loop
         vertex -5.700000e+01 6.980487e-15 1.000000e+01
         vertex -5.700000e+01 6.980487e-15 2.000000e+00
         vertex -5.100000e+01 6.245699e-15 2.000000e+00
      endloop
   endfacet
   facet normal -1.224647e-16 -1.000000e+00 -1.393146e-23
      outer loop
         vertex -5.100000e+01 6.245699e-15 2.000000e+00
         vertex 0.000000e+00 0.000000e+00 1.000000e+01
         vertex -5.700000e+01 6.980487e-15 1.000000e+01
      endloop
   endfacet
   facet normal -1.224647e-16 -1.000000e+00 0.000000e+00
      outer loop
         vertex -6.000000e+00 7.347881e-16 2.000000e+00
         vertex 0.000000e+00 0.000000e+00 2.000000e+00
         vertex 0.000000e+00 0.000000e+00 1.000000e+01
      endloop
   endfacet
   facet normal -1.224647e-16 -1.000000e+00 0.000000e+00
      outer loop
         vertex -5.100000e+01 6.245699e-15 2.000000e+00
         vertex -6.000000e+00 7.347881e-16 0.000000e+00
         vertex -6.000000e+00 7.347881e-16 2.000000e+00
      endloop
   endfacet
   facet normal -1.224647e-16 -1.000000e+00 0.000000e+00
      outer loop
         vertex -5.100000e+01 6.245699e-15 2.000000e+00
         vertex -5.100000e+01 6.245699e-15 0.000000e+00
         vertex -6.000000e+00 7.347881e-16 0.000000e+00
      endloop
   endfacet
   facet normal -1.224647e-16 -1.000000e+00 2.646978e-24
      outer loop
         vertex -6.000000e+00 7.347881e-16 2.000000e+00
         vertex 0.000000e+00 0.000000e+00 1.000000e+01
         vertex -5.100000e+01 6.245699e-15 2.000000e+00
      endloop
   endfacet
   facet normal 0.000000e+00 0.000000e+00 1.000000e+00
      outer loop
         vertex -5.400000e+01 -2.400000e+01 0.000000e+00
         vertex -5.700000e+01 -3.600000e+01 0.000000e+00
         vertex -5.100000e+01 -3.600000e+01 0.000000e+00
      endloop
   endfacet
   facet normal 0.000000e+00 0.000000e+00 1.000000e+00
      outer loop
         vertex -5.400000e+01 -1.800000e+01 0.000000e+00
         vertex -5.700000e+01 -6.000000e+00 0.000000e+00
         vertex -5.700000e+01 -3.600000e+01 0.000000e+00
      endloop
   endfacet
   facet normal 0.000000e+00 0.000000e+00 1.000000e+00
      outer loop
         vertex -5.400000e+01 -1.800000e+01 0.000000e+00
         vertex -5.100000e+01 -6.000000e+00 0.000000e+00
         vertex -5.700000e+01 -6.000000e+00 0.000000e+00
      endloop
   endfacet
   facet normal 0.000000e+00 0.000000e+00 1.000000e+00
      outer loop
         vertex -6.000000e+00 7.347881e-16 0.000000e+00
         vertex -5.100000e+01 6.245699e-15 0.000000e+00
         vertex -5.100000e+01 -6.000000e+00 0.000000e+00
      endloop
   endfacet
   facet normal 0.000000e+00 -0.000000e+00 1.000000e+00
      outer loop
         vertex -5.100000e+01 -6.000000e+00 0.000000e+00
         vertex -6.000000e+00 -6.000000e+00 0.000000e+00
         vertex -6.000000e+00 7.347881e-16 0.000000e+00
      endloop
   endfacet
   facet normal 0.000000e+00 0.000000e+00 1.000000e+00
      outer loop
         vertex -4.408729e-15 -3.600000e+01 0.000000e+00
         vertex -7.347881e-16 -6.000000e+00 0.000000e+00
         vertex -6.000000e+00 -6.000000e+00 0.000000e+00
      endloop
   endfacet
   facet normal 0.000000e+00 0.000000e+00 1.000000e+00
      outer loop
         vertex -6.000000e+00 -6.000000e+00 0.000000e+00
         vertex -6.000000e+00 -3.600000e+01 0.000000e+00
         vertex -4.408729e-15 -3.600000e+01 0.000000e+00
      endloop
   endfacet
   facet normal 0.000000e+00 -0.000000e+00 1.000000e+00
      outer loop
         vertex -5.100000e+01 -3.600000e+01 0.000000e+00
         vertex -6.000000e+00 -4.200000e+01 0.000000e+00
         vertex -6.000000e+00 -3.600000e+01 0.000000e+00
      endloop
   endfacet
   facet normal 0.000000e+00 0.000000e+00 1.000000e+00
      outer loop
         vertex -5.100000e+01 -3.600000e+01 0.000000e+00
         vertex -5.100000e+01 -4.200000e+01 0.000000e+00
         vertex -6.000000e+00 -4.200000e+01 0.000000e+00
      endloop
   endfacet
   facet normal 0.000000e+00 0.000000e+00 1.000000e+00
      outer loop
         vertex -5.100000e+01 -6.000000e+00 0.000000e+00
         vertex -5.400000e+01 -1.800000e+01 0.000000e+00
         vertex -5.100000e+01 -1.800000e+01 0.000000e+00
      endloop
   endfacet
   facet normal 0.000000e+00 -0.000000e+00 1.000000e+00
      outer loop
         vertex -5.700000e+01 -3.600000e+01 0.000000e+00
         vertex -5.400000e+01 -2.400000e+01 0.000000e+00
         vertex -5.400000e+01 -1.800000e+01 0.000000e+00
      endloop
   endfacet
   facet normal 0.000000e+00 0.000000e+00 1.000000e+00
      outer loop
         vertex -5.100000e+01 -3.600000e+01 0.000000e+00
         vertex -5.100000e+01 -2.400000e+01 0.000000e+00
         vertex -5.400000e+01 -2.400000e+01 0.000000e+00
      endloop
   endfacet
   facet normal -0.000000e+00 0.000000e+00 1.000000e+00
      outer loop
         vertex -6.000000e+00 -6.000000e+00 0.000000e+00
         vertex -5.100000e+01 -1.800000e+01 0.000000e+00
         vertex -5.100000e+01 -2.400000e+01 0.000000e+00
      endloop
   endfacet
   facet normal 0.000000e+00 0.000000e+00 1.000000e+00
      outer loop
         vertex -5.100000e+01 -1.800000e+01 0.000000e+00
         vertex -6.000000e+00 -6.000000e+00 0.000000e+00
         vertex -5.100000e+01 -6.000000e+00 0.000000e+00
      endloop
   endfacet
   facet normal 0.000000e+00 -0.000000e+00 1.000000e+00
      outer loop
         vertex -5.100000e+01 -2.400000e+01 0.000000e+00
         vertex -6.000000e+00 -3.600000e+01 0.000000e+00
         vertex -6.000000e+00 -6.000000e+00 0.000000e+00
      endloop
   endfacet
   facet normal 0.000000e+00 0.000000e+00 1.000000e+00
      outer loop
         vertex -5.100000e+01 -2.400000e+01 0.000000e+00
         vertex -5.100000e+01 -3.600000e+01 0.000000e+00
         vertex -6.000000e+00 -3.600000e+01 0.000000e+00
      endloop
   endfacet
   facet normal 0.000000e+00 0.000000e+00 1.000000e+00
      outer loop
         vertex -1.178877e-15 -6.000000e+00 2.000000e+00
         vertex 0.000000e+00 0.000000e+00 2.000000e+00
         vertex -6.000000e+00 7.347881e-16 2.000000e+00
      endloop
   endfacet
   facet normal 0.000000e+00 0.000000e+00 1.000000e+00
      outer loop
         vertex -6.000000e+00 7.347881e-16 2.000000e+00
         vertex -6.000000e+00 -6.000000e+00 2.000000e+00
         vertex -1.178877e-15 -6.000000e+00 2.000000e+00
      endloop
   endfacet
   facet normal 0.000000e+00 -1.000000e+00 0.000000e+00
      outer loop
         vertex -6.000000e+00 -6.000000e+00 2.000000e+00
         vertex -6.000000e+00 -6.000000e+00 0.000000e+00
         vertex -7.347881e-16 -6.000000e+00 0.000000e+00
      endloop
   endfacet
   facet normal -0.000000e+00 -1.000000e+00 -0.000000e+00
      outer loop
         vertex -7.347881e-16 -6.000000e+00 0.000000e+00
         vertex -1.178877e-15 -6.000000e+00 2.000000e+00
         vertex -6.000000e+00 -6.000000e+00 2.000000e+00
      endloop
   endfacet
   facet normal -1.000000e+00 0.000000e+00 0.000000e+00
      outer loop
         vertex -6.000000e+00 7.347881e-16 2.000000e+00
         vertex -6.000000e+00 7.347881e-16 0.000000e+00
         vertex -6.000000e+00 -6.000000e+00 0.000000e+00
      endloop
   endfacet
   facet normal -1.000000e+00 0.000000e+00 0.000000e+00
      outer loop
         vertex -6.000000e+00 -6.000000e+00 0.000000e+00
         vertex -6.000000e+00 -6.000000e+00 2.000000e+00
         vertex -6.000000e+00 7.347881e-16 2.000000e+00
      endloop
   endfacet
   facet normal 0.000000e+00 0.000000e+00 1.000000e+00
      outer loop
         vertex -6.000000e+00 -3.600000e+01 2.000000e+00
         vertex -6.000000e+00 -4.200000e+01 2.000000e+00
         vertex -6.124472e-15 -4.200000e+01 2.000000e+00
      endloop
   endfacet
   facet normal 0.000000e+00 0.000000e+00 1.000000e+00
      outer loop
         vertex -6.124472e-15 -4.200000e+01 2.000000e+00
         vertex -7.517353e-15 -3.600000e+01 2.000000e+00
         vertex -6.000000e+00 -3.600000e+01 2.000000e+00
      endloop
   endfacet
   facet normal -1.000000e+00 0.000000e+00 0.000000e+00
      outer loop
         vertex -6.000000e+00 -3.600000e+01 2.000000e+00
         vertex -6.000000e+00 -3.600000e+01 0.000000e+00
         vertex -6.000000e+00 -4.200000e+01 0.000000e+00
      endloop
   endfacet
   facet normal -1.000000e+00 0.000000e+00 0.000000e+00
      outer loop
         vertex -6.000000e+00 -4.200000e+01 0.000000e+00
         vertex -6.000000e+00 -4.200000e+01 2.000000e+00
         vertex -6.000000e+00 -3.600000e+01 2.000000e+00
      endloop
   endfacet
   facet normal 0.000000e+00 1.000000e+00 0.000000e+00
      outer loop
         vertex -7.517353e-15 -3.600000e+01 2.000000e+00
         vertex -4.408729e-15 -3.600000e+01 0.000000e+00
         vertex -6.000000e+00 -3.600000e+01 0.000000e+00
      endloop
   endfacet
   facet normal -0.000000e+00 1.000000e+00 0.000000e+00
      outer loop
         vertex -6.000000e+00 -3.600000e+01 0.000000e+00
         vertex -6.000000e+00 -3.600000e+01 2.000000e+00
         vertex -7.517353e-15 -3.600000e+01 2.000000e+00
      endloop
   endfacet
   facet normal 0.000000e+00 0.000000e+00 1.000000e+00
      outer loop
         vertex -5.100000e+01 -6.000000e+00 2.000000e+00
         vertex -5.100000e+01 6.245699e-15 2.000000e+00
         vertex -5.700000e+01 6.980487e-15 2.000000e+00
      endloop
   endfacet
   facet normal 0.000000e+00 0.000000e+00 1.000000e+00
      outer loop
         vertex -5.700000e+01 6.980487e-15 2.000000e+00
         vertex -5.700000e+01 -6.000000e+00 2.000000e+00
         vertex -5.100000e+01 -6.000000e+00 2.000000e+00
      endloop
   endfacet
   facet normal 1.000000e+00 0.000000e+00 0.000000e+00
      outer loop
         vertex -5.100000e+01 -6.000000e+00 2.000000e+00
         vertex -5.100000e+01 -6.000000e+00 0.000000e+00
         vertex -5.100000e+01 6.245699e-15 0.000000e+00
      endloop
   endfacet
   facet normal 1.000000e+00 0.000000e+00 0.000000e+00
      outer loop
         vertex -5.100000e+01 6.245699e-15 0.000000e+00
         vertex -5.100000e+01 6.245699e-15 2.000000e+00
         vertex -5.100000e+01 -6.000000e+00 2.000000e+00
      endloop
   endfacet
   facet normal 0.000000e+00 -1.000000e+00 0.000000e+00
      outer loop
         vertex -5.700000e+01 -6.000000e+00 2.000000e+00
         vertex -5.700000e+01 -6.000000e+00 0.000000e+00
         vertex -5.100000e+01 -6.000000e+00 0.000000e+00
      endloop
   endfacet
   facet normal -0.000000e+00 -1.000000e+00 -0.000000e+00
      outer loop
         vertex -5.100000e+01 -6.000000e+00 0.000000e+00
         vertex -5.100000e+01 -6.000000e+00 2.000000e+00
         vertex -5.700000e+01 -6.000000e+00 2.000000e+00
      endloop
   endfacet
   facet normal -0.000000e+00 0.000000e+00 1.000000e+00
      outer loop
         vertex -5.100000e+01 -3.600000e+01 2.000000e+00
         vertex -5.700000e+01 -3.600000e+01 2.000000e+00
         vertex -5.700000e+01 -4.200000e+01 2.000000e+00
      endloop
   endfacet
   facet normal 0.000000e+00 -0.000000e+00 1.000000e+00
      outer loop
         vertex -5.700000e+01 -4.200000e+01 2.000000e+00
         vertex -5.100000e+01 -4.200000e+01 2.000000e+00
         vertex -5.100000e+01 -3.600000e+01 2.000000e+00
      endloop
   endfacet
   facet normal 0.000000e+00 1.000000e+00 -0.000000e+00
      outer loop
         vertex -5.100000e+01 -3.600000e+01 2.000000e+00
         vertex -5.100000e+01 -3.600000e+01 0.000000e+00
         vertex -5.700000e+01 -3.600000e+01 0.000000e+00
      endloop
   endfacet
   facet normal -0.000000e+00 1.000000e+00 0.000000e+00
      outer loop
         vertex -5.700000e+01 -3.600000e+01 0.000000e+00
         vertex -5.700000e+01 -3.600000e+01 2.000000e+00
         vertex -5.100000e+01 -3.600000e+01 2.000000e+00
      endloop
   endfacet
   facet normal 1.000000e+00 0.000000e+00 0.000000e+00
      outer loop
         vertex -5.100000e+01 -4.200000e+01 2.000000e+00
         vertex -5.100000e+01 -4.200000e+01 0.000000e+00
         vertex -5.100000e+01 -3.600000e+01 0.000000e+00
      endloop
   endfacet
   facet normal 1.000000e+00 0.000000e+00 0.000000e+00
      outer loop
         vertex -5.100000e+01 -3.600000e+01 0.000000e+00
         vertex -5.100000e+01 -3.600000e+01 2.000000e+00
         vertex -5.100000e+01 -4.200000e+01 2.000000e+00
      endloop
   endfacet
   facet normal -0.000000e+00 0.000000e+00 1.000000e+00
      outer loop
         vertex -2.454320e-15 1.000000e+00 1.000000e+01
         vertex -5.700000e+01 1.000000e+00 1.000000e+01
         vertex -5.700000e+01 6.980487e-15 1.000000e+01
      endloop
   endfacet
   facet normal -0.000000e+00 0.000000e+00 1.000000e+00
      outer loop
         vertex -5.700000e+01 1.000000e+00 1.000000e+01
         vertex -5.725882e+01 9.659258e-01 1.000000e+01
         vertex -5.700000e+01 6.980487e-15 1.000000e+01
      endloop
   endfacet
   facet normal -0.000000e+00 0.000000e+00 1.000000e+00
      outer loop
         vertex -5.725882e+01 9.659258e-01 1.000000e+01
         vertex -5.750000e+01 8.660254e-01 1.000000e+01
         vertex -5.700000e+01 6.980487e-15 1.000000e+01
      endloop
   endfacet
   facet normal -0.000000e+00 0.000000e+00 1.000000e+00
      outer loop
         vertex -5.750000e+01 8.660254e-01 1.000000e+01
         vertex -5.770711e+01 7.071068e-01 1.000000e+01
         vertex -5.700000e+01 6.980487e-15 1.000000e+01
      endloop
   endfacet
   facet normal -0.000000e+00 0.000000e+00 1.000000e+00
      outer loop
         vertex -5.770711e+01 7.071068e-01 1.000000e+01
         vertex -5.786602e+01 5.000000e-01 1.000000e+01
         vertex -5.700000e+01 6.980487e-15 1.000000e+01
      endloop
   endfacet
   facet normal -0.000000e+00 0.000000e+00 1.000000e+00
      outer loop
         vertex -5.786602e+01 5.000000e-01 1.000000e+01
         vertex -5.796593e+01 2.588190e-01 1.000000e+01
         vertex -5.700000e+01 6.980487e-15 1.000000e+01
      endloop
   endfacet
   facet normal -0.000000e+00 0.000000e+00 1.000000e+00
      outer loop
         vertex -5.796593e+01 2.588190e-01 1.000000e+01
         vertex -5.800000e+01 7.129240e-15 1.000000e+01
         vertex -5.700000e+01 6.980487e-15 1.000000e+01
      endloop
   endfacet
   facet normal 0.000000e+00 0.000000e+00 1.000000e+00
      outer loop
         vertex -5.800000e+01 7.129240e-15 1.000000e+01
         vertex -5.800000e+01 -4.200000e+01 1.000000e+01
         vertex -5.700000e+01 -4.200000e+01 1.000000e+01
      endloop
   endfacet
   facet normal 0.000000e+00 -0.000000e+00 1.000000e+00
      outer loop
         vertex -5.800000e+01 -4.200000e+01 1.000000e+01
         vertex -5.796593e+01 -4.225882e+01 1.000000e+01
         vertex -5.700000e+01 -4.200000e+01 1.000000e+01
      endloop
   endfacet
   facet normal 0.000000e+00 -0.000000e+00 1.000000e+00
      outer loop
         vertex -5.796593e+01 -4.225882e+01 1.000000e+01
         vertex -5.786602e+01 -4.250000e+01 1.000000e+01
         vertex -5.700000e+01 -4.200000e+01 1.000000e+01
      endloop
   endfacet
   facet normal 0.000000e+00 -0.000000e+00 1.000000e+00
      outer loop
         vertex -5.786602e+01 -4.250000e+01 1.000000e+01
         vertex -5.770711e+01 -4.270711e+01 1.000000e+01
         vertex -5.700000e+01 -4.200000e+01 1.000000e+01
      endloop
   endfacet
   facet normal 0.000000e+00 -0.000000e+00 1.000000e+00
      outer loop
         vertex -5.770711e+01 -4.270711e+01 1.000000e+01
         vertex -5.750000e+01 -4.286602e+01 1.000000e+01
         vertex -5.700000e+01 -4.200000e+01 1.000000e+01
      endloop
   endfacet
   facet normal 0.000000e+00 -0.000000e+00 1.000000e+00
      outer loop
         vertex -5.750000e+01 -4.286602e+01 1.000000e+01
         vertex -5.725882e+01 -4.296593e+01 1.000000e+01
         vertex -5.700000e+01 -4.200000e+01 1.000000e+01
      endloop
   endfacet
   facet normal 0.000000e+00 -0.000000e+00 1.000000e+00
      outer loop
         vertex -5.725882e+01 -4.296593e+01 1.000000e+01
         vertex -5.700000e+01 -4.300000e+01 1.000000e+01
         vertex -5.700000e+01 -4.200000e+01 1.000000e+01
      endloop
   endfacet
   facet normal 0.000000e+00 -0.000000e+00 1.000000e+00
      outer loop
         vertex -5.700000e+01 -4.300000e+01 1.000000e+01
         vertex -9.880676e-15 -4.300000e+01 1.000000e+01
         vertex -5.143517e-15 -4.200000e+01 1.000000e+01
      endloop
   endfacet
   facet normal 0.000000e+00 0.000000e+00 1.000000e+00
      outer loop
         vertex -9.880676e-15 -4.300000e+01 1.000000e+01
         vertex 2.588190e-01 -4.296593e+01 1.000000e+01
         vertex -5.143517e-15 -4.200000e+01 1.000000e+01
      endloop
   endfacet
   facet normal 0.000000e+00 0.000000e+00 1.000000e+00
      outer loop
         vertex 2.588190e-01 -4.296593e+01 1.000000e+01
         vertex 5.000000e-01 -4.286602e+01 1.000000e+01
         vertex -5.143517e-15 -4.200000e+01 1.000000e+01
      endloop
   endfacet
   facet normal 0.000000e+00 0.000000e+00 1.000000e+00
      outer loop
         vertex 5.000000e-01 -4.286602e+01 1.000000e+01
         vertex 7.071068e-01 -4.270711e+01 1.000000e+01
         vertex -5.143517e-15 -4.200000e+01 1.000000e+01
      endloop
   endfacet
   facet normal 0.000000e+00 0.000000e+00 1.000000e+00
      outer loop
         vertex 7.071068e-01 -4.270711e+01 1.000000e+01
         vertex 8.660254e-01 -4.250000e+01 1.000000e+01
         vertex -5.143517e-15 -4.200000e+01 1.000000e+01
      endloop
   endfacet
   facet normal 0.000000e+00 0.000000e+00 1.000000e+00
      outer loop
         vertex 8.660254e-01 -4.250000e+01 1.000000e+01
         vertex 9.659258e-01 -4.225882e+01 1.000000e+01
         vertex -5.143517e-15 -4.200000e+01 1.000000e+01
      endloop
   endfacet
   facet normal 0.000000e+00 0.000000e+00 1.000000e+00
      outer loop
         vertex 9.659258e-01 -4.225882e+01 1.000000e+01
         vertex 1.000000e+00 -4.200000e+01 1.000000e+01
         vertex -5.143517e-15 -4.200000e+01 1.000000e+01
      endloop
   endfacet
   facet normal 0.000000e+00 0.000000e+00 1.000000e+00
      outer loop
         vertex 1.000000e+00 -4.200000e+01 1.000000e+01
         vertex 1.000000e+00 2.059350e-15 1.000000e+01
         vertex -5.143517e-15 -4.200000e+01 1.000000e+01
      endloop
   endfacet
   facet normal 0.000000e+00 0.000000e+00 1.000000e+00
      outer loop
         vertex 1.000000e+00 2.059350e-15 1.000000e+01
         vertex 9.659258e-01 2.588190e-01 1.000000e+01
         vertex 0.000000e+00 0.000000e+00 1.000000e+01
      endloop
   endfacet
   facet normal 0.000000e+00 0.000000e+00 1.000000e+00
      outer loop
         vertex 9.659258e-01 2.588190e-01 1.000000e+01
         vertex 8.660254e-01 5.000000e-01 1.000000e+01
         vertex 0.000000e+00 0.000000e+00 1.000000e+01
      endloop
   endfacet
   facet normal 0.000000e+00 0.000000e+00 1.000000e+00
      outer loop
         vertex 8.660254e-01 5.000000e-01 1.000000e+01
         vertex 7.071068e-01 7.071068e-01 1.000000e+01
         vertex 0.000000e+00 0.000000e+00 1.000000e+01
      endloop
   endfacet
   facet normal 0.000000e+00 0.000000e+00 1.000000e+00
      outer loop
         vertex 7.071068e-01 7.071068e-01 1.000000e+01
         vertex 5.000000e-01 8.660254e-01 1.000000e+01
         vertex 0.000000e+00 0.000000e+00 1.000000e+01
      endloop
   endfacet
   facet normal 0.000000e+00 0.000000e+00 1.000000e+00
      outer loop
         vertex 5.000000e-01 8.660254e-01 1.000000e+01
         vertex 2.588190e-01 9.659258e-01 1.000000e+01
         vertex 0.000000e+00 0.000000e+00 1.000000e+01
      endloop
   endfacet
   facet normal 0.000000e+00 0.000000e+00 1.000000e+00
      outer loop
         vertex 2.588190e-01 9.659258e-01 1.000000e+01
         vertex -2.454320e-15 1.000000e+00 1.000000e+01
         vertex 0.000000e+00 0.000000e+00 1.000000e+01
      endloop
   endfacet
   facet normal -0.000000e+00 0.000000e+00 1.000000e+00
      outer loop
         vertex -5.143517e-15 -4.200000e+01 1.000000e+01
         vertex -5.700000e+01 -4.200000e+01 1.000000e+01
         vertex -5.700000e+01 -4.300000e+01 1.000000e+01
      endloop
   endfacet
   facet normal 0.000000e+00 0.000000e+00 1.000000e+00
      outer loop
         vertex -5.700000e+01 -4.200000e+01 1.000000e+01
         vertex -5.700000e+01 6.980487e-15 1.000000e+01
         vertex -5.800000e+01 7.129240e-15 1.000000e+01
      endloop
   endfacet
   facet normal 0.000000e+00 0.000000e+00 1.000000e+00
      outer loop
         vertex -5.700000e+01 6.980487e-15 1.000000e+01
         vertex 0.000000e+00 0.000000e+00 1.000000e+01
         vertex -2.454320e-15 1.000000e+00 1.000000e+01
      endloop
   endfacet
   facet normal 0.000000e+00 0.000000e+00 1.000000e+00
      outer loop
         vertex 0.000000e+00 0.000000e+00 1.000000e+01
         vertex -5.143517e-15 -4.200000e+01 1.000000e+01
         vertex 1.000000e+00 2.059350e-15 1.000000e+01
      endloop
   endfacet
   facet normal -1.000000e+00 0.000000e+00 0.000000e+00
      outer loop
         vertex -5.100000e+01 -1.800000e+01 -1.000000e+00
         vertex -5.100000e+01 -2.400000e+01 -1.000000e+00
         vertex -5.100000e+01 -2.400000e+01 0.000000e+00
      endloop
   endfacet
   facet normal -1.000000e+00 -0.000000e+00 -0.000000e+00
      outer loop
         vertex -5.100000e+01 -2.400000e+01 0.000000e+00
         vertex -5.100000e+01 -1.800000e+01 0.000000e+00
         vertex -5.100000e+01 -1.800000e+01 -1.000000e+00
      endloop
   endfacet
   facet normal 0.000000e+00 1.000000e+00 0.000000e+00
      outer loop
         vertex -5.100000e+01 -2.400000e+01 -1.000000e+00
         vertex -5.400000e+01 -2.400000e+01 -1.000000e+00
         vertex -5.400000e+01 -2.400000e+01 0.000000e+00
      endloop
   endfacet
   facet normal 0.000000e+00 1.000000e+00 0.000000e+00
      outer loop
         vertex -5.400000e+01 -2.400000e+01 0.000000e+00
         vertex -5.100000e+01 -2.400000e+01 0.000000e+00
         vertex -5.100000e+01 -2.400000e+01 -1.000000e+00
      endloop
   endfacet
   facet normal 1.000000e+00 0.000000e+00 -0.000000e+00
      outer loop
         vertex -5.400000e+01 -2.400000e+01 -1.000000e+00
         vertex -5.400000e+01 -1.800000e+01 -1.000000e+00
         vertex -5.400000e+01 -1.800000e+01 0.000000e+00
      endloop
   endfacet
   facet normal 1.000000e+00 -0.000000e+00 0.000000e+00
      outer loop
         vertex -5.400000e+01 -1.800000e+01 0.000000e+00
         vertex -5.400000e+01 -2.400000e+01 0.000000e+00
         vertex -5.400000e+01 -2.400000e+01 -1.000000e+00
      endloop
   endfacet
   facet normal 0.000000e+00 -1.000000e+00 0.000000e+00
      outer loop
         vertex -5.400000e+01 -1.800000e+01 -1.000000e+00
         vertex -5.100000e+01 -1.800000e+01 -1.000000e+00
         vertex -5.100000e+01 -1.800000e+01 0.000000e+00
      endloop
   endfacet
   facet normal 0.000000e+00 -1.000000e+00 0.000000e+00
      outer loop
         vertex -5.100000e+01 -1.800000e+01 0.000000e+00
         vertex -5.400000e+01 -1.800000e+01 0.000000e+00
         vertex -5.400000e+01 -1.800000e+01 -1.000000e+00
      endloop
   endfacet
   facet normal 0.000000e+00 -1.000000e+00 0.000000e+00
      outer loop
         vertex -9.880676e-15 -4.300000e+01 1.000000e+01
         vertex -5.700000e+01 -4.300000e+01 1.000000e+01
         vertex -5.700000e+01 -4.300000e+01 -1.000000e+00
      endloop
   endfacet
   facet normal 0.000000e+00 -1.000000e+00 0.000000e+00
      outer loop
         vertex -5.700000e+01 -4.300000e+01 -1.000000e+00
         vertex -8.886268e-15 -4.300000e+01 -1.000000e+00
         vertex -9.880676e-15 -4.300000e+01 1.000000e+01
      endloop
   endfacet
   facet normal 1.000000e+00 0.000000e+00 0.000000e+00
      outer loop
         vertex 1.000000e+00 -4.200000e+01 -1.000000e+00
         vertex 1.000000e+00 2.252016e-15 -1.000000e+00
         vertex 1.000000e+00 2.059350e-15 1.000000e+01
      endloop
   endfacet
   facet normal 1.000000e+00 -0.000000e+00 0.000000e+00
      outer loop
         vertex 1.000000e+00 2.059350e-15 1.000000e+01
         vertex 1.000000e+00 -4.200000e+01 1.000000e+01
         vertex 1.000000e+00 -4.200000e+01 -1.000000e+00
      endloop
   endfacet
   facet normal 0.000000e+00 1.000000e+00 0.000000e+00
      outer loop
         vertex 3.866323e-15 1.000000e+00 -1.000000e+00
         vertex -5.700000e+01 1.000000e+00 -1.000000e+00
         vertex -5.700000e+01 1.000000e+00 1.000000e+01
      endloop
   endfacet
   facet normal 0.000000e+00 1.000000e+00 0.000000e+00
      outer loop
         vertex -5.700000e+01 1.000000e+00 1.000000e+01
         vertex -2.454320e-15 1.000000e+00 1.000000e+01
         vertex 3.866323e-15 1.000000e+00 -1.000000e+00
      endloop
   endfacet
   facet normal -1.000000e+00 -0.000000e+00 -0.000000e+00
      outer loop
         vertex -5.800000e+01 -4.200000e+01 1.000000e+01
         vertex -5.800000e+01 7.129240e-15 1.000000e+01
         vertex -5.800000e+01 7.308969e-15 -1.000000e+00
      endloop
   endfacet
   facet normal -1.000000e+00 0.000000e+00 0.000000e+00
      outer loop
         vertex -5.800000e+01 7.308969e-15 -1.000000e+00
         vertex -5.800000e+01 -4.200000e+01 -1.000000e+00
         vertex -5.800000e+01 -4.200000e+01 1.000000e+01
      endloop
   endfacet
   facet normal 0.000000e+00 0.000000e+00 -1.000000e+00
      outer loop
         vertex -5.800000e+01 -4.200000e+01 -1.000000e+00
         vertex -5.800000e+01 7.308969e-15 -1.000000e+00
         vertex -5.400000e+01 -2.400000e+01 -1.000000e+00
      endloop
   endfacet
   facet normal 0.000000e+00 -0.000000e+00 -1.000000e+00
      outer loop
         vertex -5.800000e+01 7.308969e-15 -1.000000e+00
         vertex -5.796593e+01 2.588190e-01 -1.000000e+00
         vertex -5.700000e+01 1.000000e+00 -1.000000e+00
      endloop
   endfacet
   facet normal 0.000000e+00 -0.000000e+00 -1.000000e+00
      outer loop
         vertex -5.796593e+01 2.588190e-01 -1.000000e+00
         vertex -5.786602e+01 5.000000e-01 -1.000000e+00
         vertex -5.770711e+01 7.071068e-01 -1.000000e+00
      endloop
   endfacet
   facet normal 0.000000e+00 -0.000000e+00 -1.000000e+00
      outer loop
         vertex -5.770711e+01 7.071068e-01 -1.000000e+00
         vertex -5.750000e+01 8.660254e-01 -1.000000e+00
         vertex -5.700000e+01 1.000000e+00 -1.000000e+00
      endloop
   endfacet
   facet normal 0.000000e+00 -0.000000e+00 -1.000000e+00
      outer loop
         vertex -5.750000e+01 8.660254e-01 -1.000000e+00
         vertex -5.725882e+01 9.659258e-01 -1.000000e+00
         vertex -5.700000e+01 1.000000e+00 -1.000000e+00
      endloop
   endfacet
   facet normal -0.000000e+00 0.000000e+00 -1.000000e+00
      outer loop
         vertex -5.700000e+01 1.000000e+00 -1.000000e+00
         vertex 3.866323e-15 1.000000e+00 -1.000000e+00
         vertex -5.100000e+01 -1.800000e+01 -1.000000e+00
      endloop
   endfacet
   facet normal -0.000000e+00 -0.000000e+00 -1.000000e+00
      outer loop
         vertex 3.866323e-15 1.000000e+00 -1.000000e+00
         vertex 2.588190e-01 9.659258e-01 -1.000000e+00
         vertex 5.000000e-01 8.660254e-01 -1.000000e+00
      endloop
   endfacet
   facet normal -0.000000e+00 -0.000000e+00 -1.000000e+00
      outer loop
         vertex 5.000000e-01 8.660254e-01 -1.000000e+00
         vertex 7.071068e-01 7.071068e-01 -1.000000e+00
         vertex 8.660254e-01 5.000000e-01 -1.000000e+00
      endloop
   endfacet
   facet normal 0.000000e+00 0.000000e+00 -1.000000e+00
      outer loop
         vertex 8.660254e-01 5.000000e-01 -1.000000e+00
         vertex 9.659258e-01 2.588190e-01 -1.000000e+00
         vertex 3.866323e-15 1.000000e+00 -1.000000e+00
      endloop
   endfacet
   facet normal 0.000000e+00 0.000000e+00 -1.000000e+00
      outer loop
         vertex 9.659258e-01 2.588190e-01 -1.000000e+00
         vertex 1.000000e+00 2.252016e-15 -1.000000e+00
         vertex 3.866323e-15 1.000000e+00 -1.000000e+00
      endloop
   endfacet
   facet normal 0.000000e+00 0.000000e+00 -1.000000e+00
      outer loop
         vertex 1.000000e+00 2.252016e-15 -1.000000e+00
         vertex 1.000000e+00 -4.200000e+01 -1.000000e+00
         vertex -5.100000e+01 -2.400000e+01 -1.000000e+00
      endloop
   endfacet
   facet normal -0.000000e+00 0.000000e+00 -1.000000e+00
      outer loop
         vertex 1.000000e+00 -4.200000e+01 -1.000000e+00
         vertex 9.659258e-01 -4.225882e+01 -1.000000e+00
         vertex -8.886268e-15 -4.300000e+01 -1.000000e+00
      endloop
   endfacet
   facet normal -0.000000e+00 0.000000e+00 -1.000000e+00
      outer loop
         vertex 9.659258e-01 -4.225882e+01 -1.000000e+00
         vertex 8.660254e-01 -4.250000e+01 -1.000000e+00
         vertex 7.071068e-01 -4.270711e+01 -1.000000e+00
      endloop
   endfacet
   facet normal -0.000000e+00 0.000000e+00 -1.000000e+00
      outer loop
         vertex 7.071068e-01 -4.270711e+01 -1.000000e+00
         vertex 5.000000e-01 -4.286602e+01 -1.000000e+00
         vertex -8.886268e-15 -4.300000e+01 -1.000000e+00
      endloop
   endfacet
   facet normal -0.000000e+00 0.000000e+00 -1.000000e+00
      outer loop
         vertex 5.000000e-01 -4.286602e+01 -1.000000e+00
         vertex 2.588190e-01 -4.296593e+01 -1.000000e+00
         vertex -8.886268e-15 -4.300000e+01 -1.000000e+00
      endloop
   endfacet
   facet normal 0.000000e+00 0.000000e+00 -1.000000e+00
      outer loop
         vertex -8.886268e-15 -4.300000e+01 -1.000000e+00
         vertex -5.700000e+01 -4.300000e+01 -1.000000e+00
         vertex -5.100000e+01 -2.400000e+01 -1.000000e+00
      endloop
   endfacet
   facet normal 0.000000e+00 0.000000e+00 -1.000000e+00
      outer loop
         vertex -5.700000e+01 -4.300000e+01 -1.000000e+00
         vertex -5.725882e+01 -4.296593e+01 -1.000000e+00
         vertex -5.750000e+01 -4.286602e+01 -1.000000e+00
      endloop
   endfacet
   facet normal 0.000000e+00 0.000000e+00 -1.000000e+00
      outer loop
         vertex -5.750000e+01 -4.286602e+01 -1.000000e+00
         vertex -5.770711e+01 -4.270711e+01 -1.000000e+00
         vertex -5.786602e+01 -4.250000e+01 -1.000000e+00
      endloop
   endfacet
   facet normal 0.000000e+00 0.000000e+00 -1.000000e+00
      outer loop
         vertex -5.786602e+01 -4.250000e+01 -1.000000e+00
         vertex -5.796593e+01 -4.225882e+01 -1.000000e+00
         vertex -5.750000e+01 -4.286602e+01 -1.000000e+00
      endloop
   endfacet
   facet normal 0.000000e+00 0.000000e+00 -1.000000e+00
      outer loop
         vertex -5.796593e+01 -4.225882e+01 -1.000000e+00
         vertex -5.800000e+01 -4.200000e+01 -1.000000e+00
         vertex -5.700000e+01 -4.300000e+01 -1.000000e+00
      endloop
   endfacet
   facet normal -0.000000e+00 0.000000e+00 -1.000000e+00
      outer loop
         vertex -5.400000e+01 -2.400000e+01 -1.000000e+00
         vertex -5.100000e+01 -2.400000e+01 -1.000000e+00
         vertex -5.800000e+01 -4.200000e+01 -1.000000e+00
      endloop
   endfacet
   facet normal 0.000000e+00 0.000000e+00 -1.000000e+00
      outer loop
         vertex -5.100000e+01 -2.400000e+01 -1.000000e+00
         vertex -5.100000e+01 -1.800000e+01 -1.000000e+00
         vertex 1.000000e+00 2.252016e-15 -1.000000e+00
      endloop
   endfacet
   facet normal 0.000000e+00 0.000000e+00 -1.000000e+00
      outer loop
         vertex -5.100000e+01 -1.800000e+01 -1.000000e+00
         vertex -5.400000e+01 -1.800000e+01 -1.000000e+00
         vertex -5.800000e+01 7.308969e-15 -1.000000e+00
      endloop
   endfacet
   facet normal 0.000000e+00 0.000000e+00 -1.000000e+00
      outer loop
         vertex -5.400000e+01 -1.800000e+01 -1.000000e+00
         vertex -5.400000e+01 -2.400000e+01 -1.000000e+00
         vertex -5.800000e+01 7.308969e-15 -1.000000e+00
      endloop
   endfacet
   facet normal 0.000000e+00 -0.000000e+00 -1.000000e+00
      outer loop
         vertex -5.800000e+01 7.308969e-15 -1.000000e+00
         vertex -5.700000e+01 1.000000e+00 -1.000000e+00
         vertex -5.100000e+01 -1.800000e+01 -1.000000e+00
      endloop
   endfacet
   facet normal 0.000000e+00 0.000000e+00 -1.000000e+00
      outer loop
         vertex -5.700000e+01 1.000000e+00 -1.000000e+00
         vertex -5.796593e+01 2.588190e-01 -1.000000e+00
         vertex -5.770711e+01 7.071068e-01 -1.000000e+00
      endloop
   endfacet
   facet normal 0.000000e+00 -0.000000e+00 -1.000000e+00
      outer loop
         vertex -5.100000e+01 -1.800000e+01 -1.000000e+00
         vertex 3.866323e-15 1.000000e+00 -1.000000e+00
         vertex 1.000000e+00 2.252016e-15 -1.000000e+00
      endloop
   endfacet
   facet normal -0.000000e+00 -0.000000e+00 -1.000000e+00
      outer loop
         vertex 3.866323e-15 1.000000e+00 -1.000000e+00
         vertex 5.000000e-01 8.660254e-01 -1.000000e+00
         vertex 8.660254e-01 5.000000e-01 -1.000000e+00
      endloop
   endfacet
   facet normal -0.000000e+00 0.000000e+00 -1.000000e+00
      outer loop
         vertex -5.100000e+01 -2.400000e+01 -1.000000e+00
         vertex 1.000000e+00 -4.200000e+01 -1.000000e+00
         vertex -8.886268e-15 -4.300000e+01 -1.000000e+00
      endloop
   endfacet
   facet normal 0.000000e+00 0.000000e+00 -1.000000e+00
      outer loop
         vertex -8.886268e-15 -4.300000e+01 -1.000000e+00
         vertex 9.659258e-01 -4.225882e+01 -1.000000e+00
         vertex 7.071068e-01 -4.270711e+01 -1.000000e+00
      endloop
   endfacet
   facet normal 0.000000e+00 0.000000e+00 -1.000000e+00
      outer loop
         vertex -5.100000e+01 -2.400000e+01 -1.000000e+00
         vertex -5.700000e+01 -4.300000e+01 -1.000000e+00
         vertex -5.800000e+01 -4.200000e+01 -1.000000e+00
      endloop
   endfacet
   facet normal 0.000000e+00 0.000000e+00 -1.000000e+00
      outer loop
         vertex -5.700000e+01 -4.300000e+01 -1.000000e+00
         vertex -5.750000e+01 -4.286602e+01 -1.000000e+00
         vertex -5.796593e+01 -4.225882e+01 -1.000000e+00
      endloop
   endfacet
   facet normal 9.914449e-01 -1.305260e-01 0.000000e+00
      outer loop
         vertex 9.659258e-01 -4.225882e+01 1.000000e+01
         vertex 9.659258e-01 -4.225882e+01 -1.000000e+00
         vertex 1.000000e+00 -4.200000e+01 -1.000000e+00
      endloop
   endfacet
   facet normal 9.914449e-01 -1.305260e-01 0.000000e+00
      outer loop
         vertex 1.000000e+00 -4.200000e+01 1.000000e+01
         vertex 9.659258e-01 -4.225882e+01 1.000000e+01
         vertex 1.000000e+00 -4.200000e+01 -1.000000e+00
      endloop
   endfacet
   facet normal 9.238792e-01 -3.826842e-01 0.000000e+00
      outer loop
         vertex 8.660254e-01 -4.250000e+01 1.000000e+01
         vertex 8.660254e-01 -4.250000e+01 -1.000000e+00
         vertex 9.659258e-01 -4.225882e+01 -1.000000e+00
      endloop
   endfacet
   facet normal 9.238792e-01 -3.826842e-01 0.000000e+00
      outer loop
         vertex 9.659258e-01 -4.225882e+01 1.000000e+01
         vertex 8.660254e-01 -4.250000e+01 1.000000e+01
         vertex 9.659258e-01 -4.225882e+01 -1.000000e+00
      endloop
   endfacet
   facet normal 7.933544e-01 -6.087600e-01 0.000000e+00
      outer loop
         vertex 7.071068e-01 -4.270711e+01 1.000000e+01
         vertex 7.071068e-01 -4.270711e+01 -1.000000e+00
         vertex 8.660254e-01 -4.250000e+01 -1.000000e+00
      endloop
   endfacet
   facet normal 7.933544e-01 -6.087600e-01 0.000000e+00
      outer loop
         vertex 8.660254e-01 -4.250000e+01 1.000000e+01
         vertex 7.071068e-01 -4.270711e+01 1.000000e+01
         vertex 8.660254e-01 -4.250000e+01 -1.000000e+00
      endloop
   endfacet
   facet normal 6.087563e-01 -7.933573e-01 0.000000e+00
      outer loop
         vertex 5.000000e-01 -4.286602e+01 1.000000e+01
         vertex 5.000000e-01 -4.286602e+01 -1.000000e+00
         vertex 7.071068e-01 -4.270711e+01 -1.000000e+00
      endloop
   endfacet
   facet normal 6.087563e-01 -7.933573e-01 0.000000e+00
      outer loop
         vertex 7.071068e-01 -4.270711e+01 1.000000e+01
         vertex 5.000000e-01 -4.286602e+01 1.000000e+01
         vertex 7.071068e-01 -4.270711e+01 -1.000000e+00
      endloop
   endfacet
   facet normal 3.826922e-01 -9.238759e-01 0.000000e+00
      outer loop
         vertex 2.588190e-01 -4.296593e+01 1.000000e+01
         vertex 2.588190e-01 -4.296593e+01 -1.000000e+00
         vertex 5.000000e-01 -4.286602e+01 -1.000000e+00
      endloop
   endfacet
   facet normal 3.826922e-01 -9.238759e-01 0.000000e+00
      outer loop
         vertex 5.000000e-01 -4.286602e+01 1.000000e+01
         vertex 2.588190e-01 -4.296593e+01 1.000000e+01
         vertex 5.000000e-01 -4.286602e+01 -1.000000e+00
      endloop
   endfacet
   facet normal 1.305213e-01 -9.914455e-01 0.000000e+00
      outer loop
         vertex -7.044195e-15 -4.300000e+01 1.000000e+01
         vertex -7.044195e-15 -4.300000e+01 -1.000000e+00
         vertex 2.588190e-01 -4.296593e+01 -1.000000e+00
      endloop
   endfacet
   facet normal 1.305213e-01 -9.914455e-01 0.000000e+00
      outer loop
         vertex 2.588190e-01 -4.296593e+01 1.000000e+01
         vertex -7.044195e-15 -4.300000e+01 1.000000e+01
         vertex 2.588190e-01 -4.296593e+01 -1.000000e+00
      endloop
   endfacet
   facet normal -1.305210e-01 -9.914455e-01 0.000000e+00
      outer loop
         vertex -5.725882e+01 -4.296593e+01 1.000000e+01
         vertex -5.725882e+01 -4.296593e+01 -1.000000e+00
         vertex -5.700000e+01 -4.300000e+01 -1.000000e+00
      endloop
   endfacet
   facet normal -1.305210e-01 -9.914455e-01 0.000000e+00
      outer loop
         vertex -5.700000e+01 -4.300000e+01 1.000000e+01
         vertex -5.725882e+01 -4.296593e+01 1.000000e+01
         vertex -5.700000e+01 -4.300000e+01 -1.000000e+00
      endloop
   endfacet
   facet normal -3.826929e-01 -9.238756e-01 0.000000e+00
      outer loop
         vertex -5.750000e+01 -4.286602e+01 1.000000e+01
         vertex -5.750000e+01 -4.286602e+01 -1.000000e+00
         vertex -5.725882e+01 -4.296593e+01 -1.000000e+00
      endloop
   endfacet
   facet normal -3.826929e-01 -9.238756e-01 0.000000e+00
      outer loop
         vertex -5.725882e+01 -4.296593e+01 1.000000e+01
         vertex -5.750000e+01 -4.286602e+01 1.000000e+01
         vertex -5.725882e+01 -4.296593e+01 -1.000000e+00
      endloop
   endfacet
   facet normal -6.087548e-01 -7.933584e-01 0.000000e+00
      outer loop
         vertex -5.770711e+01 -4.270711e+01 1.000000e+01
         vertex -5.770711e+01 -4.270711e+01 -1.000000e+00
         vertex -5.750000e+01 -4.286602e+01 -1.000000e+00
      endloop
   endfacet
   facet normal -6.087548e-01 -7.933584e-01 0.000000e+00
      outer loop
         vertex -5.750000e+01 -4.286602e+01 1.000000e+01
         vertex -5.770711e+01 -4.270711e+01 1.000000e+01
         vertex -5.750000e+01 -4.286602e+01 -1.000000e+00
      endloop
   endfacet
   facet normal -7.933584e-01 -6.087548e-01 0.000000e+00
      outer loop
         vertex -5.786602e+01 -4.250000e+01 1.000000e+01
         vertex -5.786602e+01 -4.250000e+01 -1.000000e+00
         vertex -5.770711e+01 -4.270711e+01 -1.000000e+00
      endloop
   endfacet
   facet normal -7.933584e-01 -6.087548e-01 0.000000e+00
      outer loop
         vertex -5.770711e+01 -4.270711e+01 1.000000e+01
         vertex -5.786602e+01 -4.250000e+01 1.000000e+01
         vertex -5.770711e+01 -4.270711e+01 -1.000000e+00
      endloop
   endfacet
   facet normal -9.238756e-01 -3.826929e-01 0.000000e+00
      outer loop
         vertex -5.796593e+01 -4.225882e+01 1.000000e+01
         vertex -5.796593e+01 -4.225882e+01 -1.000000e+00
         vertex -5.786602e+01 -4.250000e+01 -1.000000e+00
      endloop
   endfacet
   facet normal -9.238756e-01 -3.826929e-01 0.000000e+00
      outer loop
         vertex -5.786602e+01 -4.250000e+01 1.000000e+01
         vertex -5.796593e+01 -4.225882e+01 1.000000e+01
         vertex -5.786602e+01 -4.250000e+01 -1.000000e+00
      endloop
   endfacet
   facet normal -9.914455e-01 -1.305210e-01 0.000000e+00
      outer loop
         vertex -5.800000e+01 -4.200000e+01 1.000000e+01
         vertex -5.800000e+01 -4.200000e+01 -1.000000e+00
         vertex -5.796593e+01 -4.225882e+01 -1.000000e+00
      endloop
   endfacet
   facet normal -9.914455e-01 -1.305210e-01 0.000000e+00
      outer loop
         vertex -5.796593e+01 -4.225882e+01 1.000000e+01
         vertex -5.800000e+01 -4.200000e+01 1.000000e+01
         vertex -5.796593e+01 -4.225882e+01 -1.000000e+00
      endloop
   endfacet
   facet normal 1.305262e-01 9.914449e-01 -0.000000e+00
      outer loop
         vertex 2.588190e-01 9.659258e-01 1.000000e+01
         vertex 2.588190e-01 9.659258e-01 -1.000000e+00
         vertex -2.553513e-15 1.000000e+00 -1.000000e+00
      endloop
   endfacet
   facet normal 1.305262e-01 9.914449e-01 0.000000e+00
      outer loop
         vertex -2.553513e-15 1.000000e+00 1.000000e+01
         vertex 2.588190e-01 9.659258e-01 1.000000e+01
         vertex -2.553513e-15 1.000000e+00 -1.000000e+00
      endloop
   endfacet
   facet normal 3.826834e-01 9.238795e-01 -0.000000e+00
      outer loop
         vertex 5.000000e-01 8.660254e-01 1.000000e+01
         vertex 5.000000e-01 8.660254e-01 -1.000000e+00
         vertex 2.588190e-01 9.659258e-01 -1.000000e+00
      endloop
   endfacet
   facet normal 3.826834e-01 9.238795e-01 0.000000e+00
      outer loop
         vertex 2.588190e-01 9.659258e-01 1.000000e+01
         vertex 5.000000e-01 8.660254e-01 1.000000e+01
         vertex 2.588190e-01 9.659258e-01 -1.000000e+00
      endloop
   endfacet
   facet normal 6.087614e-01 7.933533e-01 -0.000000e+00
      outer loop
         vertex 7.071068e-01 7.071068e-01 1.000000e+01
         vertex 7.071068e-01 7.071068e-01 -1.000000e+00
         vertex 5.000000e-01 8.660254e-01 -1.000000e+00
      endloop
   endfacet
   facet normal 6.087614e-01 7.933533e-01 0.000000e+00
      outer loop
         vertex 5.000000e-01 8.660254e-01 1.000000e+01
         vertex 7.071068e-01 7.071068e-01 1.000000e+01
         vertex 5.000000e-01 8.660254e-01 -1.000000e+00
      endloop
   endfacet
   facet normal 7.933533e-01 6.087614e-01 -0.000000e+00
      outer loop
         vertex 8.660254e-01 5.000000e-01 1.000000e+01
         vertex 8.660254e-01 5.000000e-01 -1.000000e+00
         vertex 7.071068e-01 7.071068e-01 -1.000000e+00
      endloop
   endfacet
   facet normal 7.933533e-01 6.087614e-01 0.000000e+00
      outer loop
         vertex 7.071068e-01 7.071068e-01 1.000000e+01
         vertex 8.660254e-01 5.000000e-01 1.000000e+01
         vertex 7.071068e-01 7.071068e-01 -1.000000e+00
      endloop
   endfacet
   facet normal 9.238795e-01 3.826834e-01 -0.000000e+00
      outer loop
         vertex 9.659258e-01 2.588190e-01 1.000000e+01
         vertex 9.659258e-01 2.588190e-01 -1.000000e+00
         vertex 8.660254e-01 5.000000e-01 -1.000000e+00
      endloop
   endfacet
   facet normal 9.238795e-01 3.826834e-01 0.000000e+00
      outer loop
         vertex 8.660254e-01 5.000000e-01 1.000000e+01
         vertex 9.659258e-01 2.588190e-01 1.000000e+01
         vertex 8.660254e-01 5.000000e-01 -1.000000e+00
      endloop
   endfacet
   facet normal 9.914449e-01 1.305262e-01 -0.000000e+00
      outer loop
         vertex 1.000000e+00 -4.978996e-17 1.000000e+01
         vertex 1.000000e+00 -4.978996e-17 -1.000000e+00
         vertex 9.659258e-01 2.588190e-01 -1.000000e+00
      endloop
   endfacet
   facet normal 9.914449e-01 1.305262e-01 0.000000e+00
      outer loop
         vertex 9.659258e-01 2.588190e-01 1.000000e+01
         vertex 1.000000e+00 -4.978996e-17 1.000000e+01
         vertex 9.659258e-01 2.588190e-01 -1.000000e+00
      endloop
   endfacet
   facet normal -9.914455e-01 1.305213e-01 0.000000e+00
      outer loop
         vertex -5.796593e+01 2.588190e-01 1.000000e+01
         vertex -5.796593e+01 2.588190e-01 -1.000000e+00
         vertex -5.800000e+01 7.105427e-15 -1.000000e+00
      endloop
   endfacet
   facet normal -9.914455e-01 1.305213e-01 0.000000e+00
      outer loop
         vertex -5.800000e+01 7.105427e-15 1.000000e+01
         vertex -5.796593e+01 2.588190e-01 1.000000e+01
         vertex -5.800000e+01 7.105427e-15 -1.000000e+00
      endloop
   endfacet
   facet normal -9.238759e-01 3.826922e-01 0.000000e+00
      outer loop
         vertex -5.786602e+01 5.000000e-01 1.000000e+01
         vertex -5.786602e+01 5.000000e-01 -1.000000e+00
         vertex -5.796593e+01 2.588190e-01 -1.000000e+00
      endloop
   endfacet
   facet normal -9.238759e-01 3.826922e-01 0.000000e+00
      outer loop
         vertex -5.796593e+01 2.588190e-01 1.000000e+01
         vertex -5.786602e+01 5.000000e-01 1.000000e+01
         vertex -5.796593e+01 2.588190e-01 -1.000000e+00
      endloop
   endfacet
   facet normal -7.933573e-01 6.087563e-01 0.000000e+00
      outer loop
         vertex -5.770711e+01 7.071068e-01 1.000000e+01
         vertex -5.770711e+01 7.071068e-01 -1.000000e+00
         vertex -5.786602e+01 5.000000e-01 -1.000000e+00
      endloop
   endfacet
   facet normal -7.933573e-01 6.087563e-01 0.000000e+00
      outer loop
         vertex -5.786602e+01 5.000000e-01 1.000000e+01
         vertex -5.770711e+01 7.071068e-01 1.000000e+01
         vertex -5.786602e+01 5.000000e-01 -1.000000e+00
      endloop
   endfacet
   facet normal -6.087600e-01 7.933544e-01 0.000000e+00
      outer loop
         vertex -5.750000e+01 8.660254e-01 1.000000e+01
         vertex -5.750000e+01 8.660254e-01 -1.000000e+00
         vertex -5.770711e+01 7.071068e-01 -1.000000e+00
      endloop
   endfacet
   facet normal -6.087600e-01 7.933544e-01 0.000000e+00
      outer loop
         vertex -5.770711e+01 7.071068e-01 1.000000e+01
         vertex -5.750000e+01 8.660254e-01 1.000000e+01
         vertex -5.770711e+01 7.071068e-01 -1.000000e+00
      endloop
   endfacet
   facet normal -3.826842e-01 9.238792e-01 0.000000e+00
      outer loop
         vertex -5.725882e+01 9.659258e-01 1.000000e+01
         vertex -5.725882e+01 9.659258e-01 -1.000000e+00
         vertex -5.750000e+01 8.660254e-01 -1.000000e+00
      endloop
   endfacet
   facet normal -3.826842e-01 9.238792e-01 0.000000e+00
      outer loop
         vertex -5.750000e+01 8.660254e-01 1.000000e+01
         vertex -5.725882e+01 9.659258e-01 1.000000e+01
         vertex -5.750000e+01 8.660254e-01 -1.000000e+00
      endloop
   endfacet
   facet normal -1.305260e-01 9.914449e-01 0.000000e+00
      outer loop
         vertex -5.700000e+01 1.000000e+00 1.000000e+01
         vertex -5.700000e+01 1.000000e+00 -1.000000e+00
         vertex -5.725882e+01 9.659258e-01 -1.000000e+00
      endloop
   endfacet
   facet normal -1.305260e-01 9.914449e-01 0.000000e+00
      outer loop
         vertex -5.725882e+01 9.659258e-01 1.000000e+01
         vertex -5.700000e+01 1.000000e+00 1.000000e+01
         vertex -5.725882e+01 9.659258e-01 -1.000000e+00
      endloop
   endfacet
endsolid
