solid 
   facet normal 0.000000e+00 1.000000e+00 0.000000e+00
      outer loop
         vertex -3.000000e+00 -4.100000e+01 1.000000e+00
         vertex -5.600000e+01 -4.100000e+01 1.000000e+00
         vertex -5.600000e+01 -4.100000e+01 8.000000e+00
      endloop
   endfacet
   facet normal 0.000000e+00 1.000000e+00 0.000000e+00
      outer loop
         vertex -5.600000e+01 -4.100000e+01 8.000000e+00
         vertex -3.000000e+00 -4.100000e+01 8.000000e+00
         vertex -3.000000e+00 -4.100000e+01 1.000000e+00
      endloop
   endfacet
   facet normal -1.000000e+00 0.000000e+00 0.000000e+00
      outer loop
         vertex -3.000000e+00 -3.000000e+00 1.000000e+00
         vertex -3.000000e+00 -4.100000e+01 1.000000e+00
         vertex -3.000000e+00 -4.100000e+01 8.000000e+00
      endloop
   endfacet
   facet normal -1.000000e+00 -0.000000e+00 -0.000000e+00
      outer loop
         vertex -3.000000e+00 -4.100000e+01 8.000000e+00
         vertex -3.000000e+00 -3.000000e+00 8.000000e+00
         vertex -3.000000e+00 -3.000000e+00 1.000000e+00
      endloop
   endfacet
   facet normal 0.000000e+00 -1.000000e+00 0.000000e+00
      outer loop
         vertex -5.600000e+01 -3.000000e+00 1.000000e+00
         vertex -3.000000e+00 -3.000000e+00 1.000000e+00
         vertex -3.000000e+00 -3.000000e+00 8.000000e+00
      endloop
   endfacet
   facet normal 0.000000e+00 -1.000000e+00 0.000000e+00
      outer loop
         vertex -3.000000e+00 -3.000000e+00 8.000000e+00
         vertex -5.600000e+01 -3.000000e+00 8.000000e+00
         vertex -5.600000e+01 -3.000000e+00 1.000000e+00
      endloop
   endfacet
   facet normal 1.000000e+00 0.000000e+00 -0.000000e+00
      outer loop
         vertex -5.600000e+01 -4.100000e+01 1.000000e+00
         vertex -5.600000e+01 -3.000000e+00 1.000000e+00
         vertex -5.600000e+01 -3.000000e+00 8.000000e+00
      endloop
   endfacet
   facet normal 1.000000e+00 -0.000000e+00 0.000000e+00
      outer loop
         vertex -5.600000e+01 -3.000000e+00 8.000000e+00
         vertex -5.600000e+01 -4.100000e+01 8.000000e+00
         vertex -5.600000e+01 -4.100000e+01 1.000000e+00
      endloop
   endfacet
   facet normal 0.000000e+00 0.000000e+00 1.000000e+00
      outer loop
         vertex -5.700000e+01 -2.000000e+00 8.000000e+00
         vertex -5.700000e+01 -4.200000e+01 8.000000e+00
         vertex -5.600000e+01 -4.100000e+01 8.000000e+00
      endloop
   endfacet
   facet normal 0.000000e+00 0.000000e+00 1.000000e+00
      outer loop
         vertex -5.700000e+01 -4.200000e+01 8.000000e+00
         vertex -2.000000e+00 -4.200000e+01 8.000000e+00
         vertex -3.000000e+00 -4.100000e+01 8.000000e+00
      endloop
   endfacet
   facet normal 0.000000e+00 0.000000e+00 1.000000e+00
      outer loop
         vertex -2.000000e+00 -4.200000e+01 8.000000e+00
         vertex -2.000000e+00 -2.000000e+00 8.000000e+00
         vertex -3.000000e+00 -3.000000e+00 8.000000e+00
      endloop
   endfacet
   facet normal -0.000000e+00 0.000000e+00 1.000000e+00
      outer loop
         vertex -2.000000e+00 -2.000000e+00 8.000000e+00
         vertex -5.700000e+01 -2.000000e+00 8.000000e+00
         vertex -3.000000e+00 -3.000000e+00 8.000000e+00
      endloop
   endfacet
   facet normal -0.000000e+00 0.000000e+00 1.000000e+00
      outer loop
         vertex -3.000000e+00 -3.000000e+00 8.000000e+00
         vertex -3.000000e+00 -4.100000e+01 8.000000e+00
         vertex -2.000000e+00 -4.200000e+01 8.000000e+00
      endloop
   endfacet
   facet normal -0.000000e+00 0.000000e+00 1.000000e+00
      outer loop
         vertex -3.000000e+00 -4.100000e+01 8.000000e+00
         vertex -5.600000e+01 -4.100000e+01 8.000000e+00
         vertex -5.700000e+01 -4.200000e+01 8.000000e+00
      endloop
   endfacet
   facet normal 0.000000e+00 0.000000e+00 1.000000e+00
      outer loop
         vertex -5.600000e+01 -4.100000e+01 8.000000e+00
         vertex -5.600000e+01 -3.000000e+00 8.000000e+00
         vertex -5.700000e+01 -2.000000e+00 8.000000e+00
      endloop
   endfacet
   facet normal 0.000000e+00 0.000000e+00 1.000000e+00
      outer loop
         vertex -5.600000e+01 -3.000000e+00 8.000000e+00
         vertex -3.000000e+00 -3.000000e+00 8.000000e+00
         vertex -5.700000e+01 -2.000000e+00 8.000000e+00
      endloop
   endfacet
   facet normal 0.000000e+00 0.000000e+00 1.000000e+00
      outer loop
         vertex -5.600000e+01 -3.000000e+00 1.000000e+00
         vertex -5.600000e+01 -4.100000e+01 1.000000e+00
         vertex -3.000000e+00 -4.100000e+01 1.000000e+00
      endloop
   endfacet
   facet normal 0.000000e+00 0.000000e+00 1.000000e+00
      outer loop
         vertex -3.000000e+00 -4.100000e+01 1.000000e+00
         vertex -3.000000e+00 -3.000000e+00 1.000000e+00
         vertex -5.600000e+01 -3.000000e+00 1.000000e+00
      endloop
   endfacet
   facet normal 0.000000e+00 -1.000000e+00 0.000000e+00
      outer loop
         vertex -5.700000e+01 -4.200000e+01 8.000000e+00
         vertex -5.700000e+01 -4.200000e+01 5.000000e+00
         vertex -2.000000e+00 -4.200000e+01 5.000000e+00
      endloop
   endfacet
   facet normal -0.000000e+00 -1.000000e+00 -0.000000e+00
      outer loop
         vertex -2.000000e+00 -4.200000e+01 5.000000e+00
         vertex -2.000000e+00 -4.200000e+01 8.000000e+00
         vertex -5.700000e+01 -4.200000e+01 8.000000e+00
      endloop
   endfacet
   facet normal 1.000000e+00 0.000000e+00 0.000000e+00
      outer loop
         vertex -2.000000e+00 -4.200000e+01 8.000000e+00
         vertex -2.000000e+00 -4.200000e+01 5.000000e+00
         vertex -2.000000e+00 -2.000000e+00 5.000000e+00
      endloop
   endfacet
   facet normal 1.000000e+00 0.000000e+00 0.000000e+00
      outer loop
         vertex -2.000000e+00 -2.000000e+00 5.000000e+00
         vertex -2.000000e+00 -2.000000e+00 8.000000e+00
         vertex -2.000000e+00 -4.200000e+01 8.000000e+00
      endloop
   endfacet
   facet normal 0.000000e+00 1.000000e+00 -0.000000e+00
      outer loop
         vertex -2.000000e+00 -2.000000e+00 8.000000e+00
         vertex -2.000000e+00 -2.000000e+00 5.000000e+00
         vertex -5.700000e+01 -2.000000e+00 5.000000e+00
      endloop
   endfacet
   facet normal -0.000000e+00 1.000000e+00 0.000000e+00
      outer loop
         vertex -5.700000e+01 -2.000000e+00 5.000000e+00
         vertex -5.700000e+01 -2.000000e+00 8.000000e+00
         vertex -2.000000e+00 -2.000000e+00 8.000000e+00
      endloop
   endfacet
   facet normal -1.000000e+00 0.000000e+00 0.000000e+00
      outer loop
         vertex -5.700000e+01 -2.000000e+00 8.000000e+00
         vertex -5.700000e+01 -2.000000e+00 5.000000e+00
         vertex -5.700000e+01 -4.200000e+01 5.000000e+00
      endloop
   endfacet
   facet normal -1.000000e+00 0.000000e+00 0.000000e+00
      outer loop
         vertex -5.700000e+01 -4.200000e+01 5.000000e+00
         vertex -5.700000e+01 -4.200000e+01 8.000000e+00
         vertex -5.700000e+01 -2.000000e+00 8.000000e+00
      endloop
   endfacet
   facet normal 0.000000e+00 0.000000e+00 1.000000e+00
      outer loop
         vertex -5.731100e-15 -4.300000e+01 5.000000e+00
         vertex -1.556580e-16 -1.000000e+00 5.000000e+00
         vertex -2.000000e+00 -4.200000e+01 5.000000e+00
      endloop
   endfacet
   facet normal 0.000000e+00 0.000000e+00 1.000000e+00
      outer loop
         vertex -1.556580e-16 -1.000000e+00 5.000000e+00
         vertex -3.407417e-02 -7.411810e-01 5.000000e+00
         vertex -1.000000e+00 1.895007e-15 5.000000e+00
      endloop
   endfacet
   facet normal 0.000000e+00 0.000000e+00 1.000000e+00
      outer loop
         vertex -3.407417e-02 -7.411810e-01 5.000000e+00
         vertex -1.339746e-01 -5.000000e-01 5.000000e+00
         vertex -1.000000e+00 1.895007e-15 5.000000e+00
      endloop
   endfacet
   facet normal 0.000000e+00 0.000000e+00 1.000000e+00
      outer loop
         vertex -1.339746e-01 -5.000000e-01 5.000000e+00
         vertex -2.928932e-01 -2.928932e-01 5.000000e+00
         vertex -1.000000e+00 1.895007e-15 5.000000e+00
      endloop
   endfacet
   facet normal 0.000000e+00 0.000000e+00 1.000000e+00
      outer loop
         vertex -2.928932e-01 -2.928932e-01 5.000000e+00
         vertex -5.000000e-01 -1.339746e-01 5.000000e+00
         vertex -1.000000e+00 1.895007e-15 5.000000e+00
      endloop
   endfacet
   facet normal 0.000000e+00 0.000000e+00 1.000000e+00
      outer loop
         vertex -5.000000e-01 -1.339746e-01 5.000000e+00
         vertex -7.411810e-01 -3.407417e-02 5.000000e+00
         vertex -1.000000e+00 1.895007e-15 5.000000e+00
      endloop
   endfacet
   facet normal 0.000000e+00 0.000000e+00 1.000000e+00
      outer loop
         vertex -1.000000e+00 1.895007e-15 5.000000e+00
         vertex -5.800000e+01 7.103777e-15 5.000000e+00
         vertex -5.700000e+01 -2.000000e+00 5.000000e+00
      endloop
   endfacet
   facet normal -0.000000e+00 0.000000e+00 1.000000e+00
      outer loop
         vertex -5.800000e+01 7.103777e-15 5.000000e+00
         vertex -5.825882e+01 -3.407417e-02 5.000000e+00
         vertex -5.886602e+01 -5.000000e-01 5.000000e+00
      endloop
   endfacet
   facet normal -0.000000e+00 0.000000e+00 1.000000e+00
      outer loop
         vertex -5.825882e+01 -3.407417e-02 5.000000e+00
         vertex -5.850000e+01 -1.339746e-01 5.000000e+00
         vertex -5.886602e+01 -5.000000e-01 5.000000e+00
      endloop
   endfacet
   facet normal -0.000000e+00 0.000000e+00 1.000000e+00
      outer loop
         vertex -5.850000e+01 -1.339746e-01 5.000000e+00
         vertex -5.870711e+01 -2.928932e-01 5.000000e+00
         vertex -5.886602e+01 -5.000000e-01 5.000000e+00
      endloop
   endfacet
   facet normal -0.000000e+00 0.000000e+00 1.000000e+00
      outer loop
         vertex -5.886602e+01 -5.000000e-01 5.000000e+00
         vertex -5.896593e+01 -7.411810e-01 5.000000e+00
         vertex -5.900000e+01 -1.000000e+00 5.000000e+00
      endloop
   endfacet
   facet normal 0.000000e+00 0.000000e+00 1.000000e+00
      outer loop
         vertex -5.900000e+01 -1.000000e+00 5.000000e+00
         vertex -5.900000e+01 -4.300000e+01 5.000000e+00
         vertex -5.700000e+01 -4.200000e+01 5.000000e+00
      endloop
   endfacet
   facet normal -0.000000e+00 -0.000000e+00 1.000000e+00
      outer loop
         vertex -5.900000e+01 -4.300000e+01 5.000000e+00
         vertex -5.896593e+01 -4.325882e+01 5.000000e+00
         vertex -5.825882e+01 -4.396593e+01 5.000000e+00
      endloop
   endfacet
   facet normal -0.000000e+00 -0.000000e+00 1.000000e+00
      outer loop
         vertex -5.896593e+01 -4.325882e+01 5.000000e+00
         vertex -5.886602e+01 -4.350000e+01 5.000000e+00
         vertex -5.870711e+01 -4.370711e+01 5.000000e+00
      endloop
   endfacet
   facet normal -0.000000e+00 -0.000000e+00 1.000000e+00
      outer loop
         vertex -5.870711e+01 -4.370711e+01 5.000000e+00
         vertex -5.850000e+01 -4.386602e+01 5.000000e+00
         vertex -5.825882e+01 -4.396593e+01 5.000000e+00
      endloop
   endfacet
   facet normal 0.000000e+00 0.000000e+00 1.000000e+00
      outer loop
         vertex -5.825882e+01 -4.396593e+01 5.000000e+00
         vertex -5.800000e+01 -4.400000e+01 5.000000e+00
         vertex -5.900000e+01 -4.300000e+01 5.000000e+00
      endloop
   endfacet
   facet normal 0.000000e+00 0.000000e+00 1.000000e+00
      outer loop
         vertex -5.800000e+01 -4.400000e+01 5.000000e+00
         vertex -1.000000e+00 -4.400000e+01 5.000000e+00
         vertex -2.000000e+00 -4.200000e+01 5.000000e+00
      endloop
   endfacet
   facet normal 0.000000e+00 -0.000000e+00 1.000000e+00
      outer loop
         vertex -1.000000e+00 -4.400000e+01 5.000000e+00
         vertex -7.411810e-01 -4.396593e+01 5.000000e+00
         vertex -5.000000e-01 -4.386602e+01 5.000000e+00
      endloop
   endfacet
   facet normal 0.000000e+00 -0.000000e+00 1.000000e+00
      outer loop
         vertex -5.000000e-01 -4.386602e+01 5.000000e+00
         vertex -2.928932e-01 -4.370711e+01 5.000000e+00
         vertex -1.339746e-01 -4.350000e+01 5.000000e+00
      endloop
   endfacet
   facet normal 0.000000e+00 0.000000e+00 1.000000e+00
      outer loop
         vertex -1.339746e-01 -4.350000e+01 5.000000e+00
         vertex -3.407417e-02 -4.325882e+01 5.000000e+00
         vertex -5.000000e-01 -4.386602e+01 5.000000e+00
      endloop
   endfacet
   facet normal 0.000000e+00 0.000000e+00 1.000000e+00
      outer loop
         vertex -3.407417e-02 -4.325882e+01 5.000000e+00
         vertex -5.731100e-15 -4.300000e+01 5.000000e+00
         vertex -5.000000e-01 -4.386602e+01 5.000000e+00
      endloop
   endfacet
   facet normal -0.000000e+00 0.000000e+00 1.000000e+00
      outer loop
         vertex -2.000000e+00 -4.200000e+01 5.000000e+00
         vertex -5.700000e+01 -4.200000e+01 5.000000e+00
         vertex -5.800000e+01 -4.400000e+01 5.000000e+00
      endloop
   endfacet
   facet normal 0.000000e+00 0.000000e+00 1.000000e+00
      outer loop
         vertex -5.700000e+01 -4.200000e+01 5.000000e+00
         vertex -5.700000e+01 -2.000000e+00 5.000000e+00
         vertex -5.900000e+01 -1.000000e+00 5.000000e+00
      endloop
   endfacet
   facet normal 0.000000e+00 -0.000000e+00 1.000000e+00
      outer loop
         vertex -5.700000e+01 -2.000000e+00 5.000000e+00
         vertex -2.000000e+00 -2.000000e+00 5.000000e+00
         vertex -1.000000e+00 1.895007e-15 5.000000e+00
      endloop
   endfacet
   facet normal 0.000000e+00 0.000000e+00 1.000000e+00
      outer loop
         vertex -2.000000e+00 -2.000000e+00 5.000000e+00
         vertex -2.000000e+00 -4.200000e+01 5.000000e+00
         vertex -1.556580e-16 -1.000000e+00 5.000000e+00
      endloop
   endfacet
   facet normal 0.000000e+00 0.000000e+00 1.000000e+00
      outer loop
         vertex -5.731100e-15 -4.300000e+01 5.000000e+00
         vertex -2.000000e+00 -4.200000e+01 5.000000e+00
         vertex -1.000000e+00 -4.400000e+01 5.000000e+00
      endloop
   endfacet
   facet normal 0.000000e+00 0.000000e+00 1.000000e+00
      outer loop
         vertex -1.556580e-16 -1.000000e+00 5.000000e+00
         vertex -1.000000e+00 1.895007e-15 5.000000e+00
         vertex -2.000000e+00 -2.000000e+00 5.000000e+00
      endloop
   endfacet
   facet normal 0.000000e+00 0.000000e+00 1.000000e+00
      outer loop
         vertex -5.700000e+01 -2.000000e+00 5.000000e+00
         vertex -5.800000e+01 7.103777e-15 5.000000e+00
         vertex -5.900000e+01 -1.000000e+00 5.000000e+00
      endloop
   endfacet
   facet normal -0.000000e+00 0.000000e+00 1.000000e+00
      outer loop
         vertex -5.800000e+01 7.103777e-15 5.000000e+00
         vertex -5.886602e+01 -5.000000e-01 5.000000e+00
         vertex -5.900000e+01 -1.000000e+00 5.000000e+00
      endloop
   endfacet
   facet normal -0.000000e+00 0.000000e+00 1.000000e+00
      outer loop
         vertex -5.700000e+01 -4.200000e+01 5.000000e+00
         vertex -5.900000e+01 -4.300000e+01 5.000000e+00
         vertex -5.800000e+01 -4.400000e+01 5.000000e+00
      endloop
   endfacet
   facet normal 0.000000e+00 0.000000e+00 1.000000e+00
      outer loop
         vertex -5.825882e+01 -4.396593e+01 5.000000e+00
         vertex -5.896593e+01 -4.325882e+01 5.000000e+00
         vertex -5.870711e+01 -4.370711e+01 5.000000e+00
      endloop
   endfacet
   facet normal 0.000000e+00 -0.000000e+00 1.000000e+00
      outer loop
         vertex -1.000000e+00 -4.400000e+01 5.000000e+00
         vertex -5.000000e-01 -4.386602e+01 5.000000e+00
         vertex -5.731100e-15 -4.300000e+01 5.000000e+00
      endloop
   endfacet
   facet normal -1.000000e+00 -0.000000e+00 -0.000000e+00
      outer loop
         vertex -5.900000e+01 -4.300000e+01 5.000000e+00
         vertex -5.900000e+01 -1.000000e+00 5.000000e+00
         vertex -5.900000e+01 -1.000000e+00 0.000000e+00
      endloop
   endfacet
   facet normal -1.000000e+00 0.000000e+00 0.000000e+00
      outer loop
         vertex -5.900000e+01 -1.000000e+00 0.000000e+00
         vertex -5.900000e+01 -4.300000e+01 0.000000e+00
         vertex -5.900000e+01 -4.300000e+01 5.000000e+00
      endloop
   endfacet
   facet normal 0.000000e+00 -1.000000e+00 0.000000e+00
      outer loop
         vertex -5.800000e+01 -4.400000e+01 0.000000e+00
         vertex -1.000000e+00 -4.400000e+01 0.000000e+00
         vertex -1.000000e+00 -4.400000e+01 5.000000e+00
      endloop
   endfacet
   facet normal 0.000000e+00 -1.000000e+00 0.000000e+00
      outer loop
         vertex -1.000000e+00 -4.400000e+01 5.000000e+00
         vertex -5.800000e+01 -4.400000e+01 5.000000e+00
         vertex -5.800000e+01 -4.400000e+01 0.000000e+00
      endloop
   endfacet
   facet normal 1.000000e+00 -1.151260e-16 -1.184238e-16
      outer loop
         vertex -5.583070e-15 -4.300000e+01 0.000000e+00
         vertex -7.477769e-16 -1.000000e+00 0.000000e+00
         vertex -1.556580e-16 -1.000000e+00 5.000000e+00
      endloop
   endfacet
   facet normal 1.000000e+00 -1.327486e-16 2.960600e-17
      outer loop
         vertex -1.556580e-16 -1.000000e+00 5.000000e+00
         vertex -5.731100e-15 -4.300000e+01 5.000000e+00
         vertex -5.583070e-15 -4.300000e+01 0.000000e+00
      endloop
   endfacet
   facet normal 9.138192e-17 1.000000e+00 -1.184238e-16
      outer loop
         vertex -5.800000e+01 7.103777e-15 5.000000e+00
         vertex -1.000000e+00 1.895007e-15 5.000000e+00
         vertex -1.000000e+00 1.302888e-15 0.000000e+00
      endloop
   endfacet
   facet normal 1.017700e-16 1.000000e+00 -0.000000e+00
      outer loop
         vertex -1.000000e+00 1.302888e-15 0.000000e+00
         vertex -5.800000e+01 7.103777e-15 0.000000e+00
         vertex -5.800000e+01 7.103777e-15 5.000000e+00
      endloop
   endfacet
   facet normal 0.000000e+00 0.000000e+00 -1.000000e+00
      outer loop
         vertex -5.800000e+01 -4.400000e+01 0.000000e+00
         vertex -5.800000e+01 7.103777e-15 0.000000e+00
         vertex -1.000000e+00 1.302888e-15 0.000000e+00
      endloop
   endfacet
   facet normal 0.000000e+00 -0.000000e+00 -1.000000e+00
      outer loop
         vertex -5.886602e+01 -5.000000e-01 0.000000e+00
         vertex -5.825882e+01 -3.407417e-02 0.000000e+00
         vertex -5.800000e+01 7.103777e-15 0.000000e+00
      endloop
   endfacet
   facet normal 0.000000e+00 -0.000000e+00 -1.000000e+00
      outer loop
         vertex -5.886602e+01 -5.000000e-01 0.000000e+00
         vertex -5.850000e+01 -1.339746e-01 0.000000e+00
         vertex -5.825882e+01 -3.407417e-02 0.000000e+00
      endloop
   endfacet
   facet normal 0.000000e+00 -0.000000e+00 -1.000000e+00
      outer loop
         vertex -5.886602e+01 -5.000000e-01 0.000000e+00
         vertex -5.870711e+01 -2.928932e-01 0.000000e+00
         vertex -5.850000e+01 -1.339746e-01 0.000000e+00
      endloop
   endfacet
   facet normal 6.294103e-15 -1.686517e-15 -1.000000e+00
      outer loop
         vertex -5.900000e+01 -1.000000e+00 0.000000e+00
         vertex -5.896593e+01 -7.411810e-01 -2.220446e-16
         vertex -5.886602e+01 -5.000000e-01 0.000000e+00
      endloop
   endfacet
   facet normal 0.000000e+00 0.000000e+00 -1.000000e+00
      outer loop
         vertex -5.800000e+01 7.103777e-15 0.000000e+00
         vertex -5.900000e+01 -4.300000e+01 0.000000e+00
         vertex -5.900000e+01 -1.000000e+00 0.000000e+00
      endloop
   endfacet
   facet normal 0.000000e+00 0.000000e+00 -1.000000e+00
      outer loop
         vertex -5.825882e+01 -4.396593e+01 0.000000e+00
         vertex -5.896593e+01 -4.325882e+01 0.000000e+00
         vertex -5.900000e+01 -4.300000e+01 0.000000e+00
      endloop
   endfacet
   facet normal 0.000000e+00 0.000000e+00 -1.000000e+00
      outer loop
         vertex -5.870711e+01 -4.370711e+01 0.000000e+00
         vertex -5.886602e+01 -4.350000e+01 0.000000e+00
         vertex -5.896593e+01 -4.325882e+01 0.000000e+00
      endloop
   endfacet
   facet normal 0.000000e+00 0.000000e+00 -1.000000e+00
      outer loop
         vertex -5.825882e+01 -4.396593e+01 0.000000e+00
         vertex -5.850000e+01 -4.386602e+01 0.000000e+00
         vertex -5.870711e+01 -4.370711e+01 0.000000e+00
      endloop
   endfacet
   facet normal 0.000000e+00 0.000000e+00 -1.000000e+00
      outer loop
         vertex -5.900000e+01 -4.300000e+01 0.000000e+00
         vertex -5.800000e+01 -4.400000e+01 0.000000e+00
         vertex -5.825882e+01 -4.396593e+01 0.000000e+00
      endloop
   endfacet
   facet normal 0.000000e+00 0.000000e+00 -1.000000e+00
      outer loop
         vertex -1.000000e+00 1.302888e-15 0.000000e+00
         vertex -1.000000e+00 -4.400000e+01 0.000000e+00
         vertex -5.800000e+01 -4.400000e+01 0.000000e+00
      endloop
   endfacet
   facet normal -0.000000e+00 0.000000e+00 -1.000000e+00
      outer loop
         vertex -5.583070e-15 -4.300000e+01 0.000000e+00
         vertex -7.411810e-01 -4.396593e+01 0.000000e+00
         vertex -1.000000e+00 -4.400000e+01 0.000000e+00
      endloop
   endfacet
   facet normal -0.000000e+00 0.000000e+00 -1.000000e+00
      outer loop
         vertex -2.928932e-01 -4.370711e+01 0.000000e+00
         vertex -5.000000e-01 -4.386602e+01 0.000000e+00
         vertex -7.411810e-01 -4.396593e+01 0.000000e+00
      endloop
   endfacet
   facet normal -0.000000e+00 0.000000e+00 -1.000000e+00
      outer loop
         vertex -3.407417e-02 -4.325882e+01 0.000000e+00
         vertex -1.339746e-01 -4.350000e+01 0.000000e+00
         vertex -2.928932e-01 -4.370711e+01 0.000000e+00
      endloop
   endfacet
   facet normal 0.000000e+00 0.000000e+00 -1.000000e+00
      outer loop
         vertex -7.411810e-01 -4.396593e+01 0.000000e+00
         vertex -5.583070e-15 -4.300000e+01 0.000000e+00
         vertex -3.407417e-02 -4.325882e+01 0.000000e+00
      endloop
   endfacet
   facet normal -0.000000e+00 0.000000e+00 -1.000000e+00
      outer loop
         vertex -1.000000e+00 1.302888e-15 0.000000e+00
         vertex -7.477769e-16 -1.000000e+00 0.000000e+00
         vertex -5.583070e-15 -4.300000e+01 0.000000e+00
      endloop
   endfacet
   facet normal -0.000000e+00 -0.000000e+00 -1.000000e+00
      outer loop
         vertex -1.000000e+00 1.302888e-15 0.000000e+00
         vertex -3.407417e-02 -7.411810e-01 0.000000e+00
         vertex -7.477769e-16 -1.000000e+00 0.000000e+00
      endloop
   endfacet
   facet normal -0.000000e+00 -0.000000e+00 -1.000000e+00
      outer loop
         vertex -1.000000e+00 1.302888e-15 0.000000e+00
         vertex -1.339746e-01 -5.000000e-01 0.000000e+00
         vertex -3.407417e-02 -7.411810e-01 0.000000e+00
      endloop
   endfacet
   facet normal -0.000000e+00 -0.000000e+00 -1.000000e+00
      outer loop
         vertex -1.000000e+00 1.302888e-15 0.000000e+00
         vertex -2.928932e-01 -2.928932e-01 0.000000e+00
         vertex -1.339746e-01 -5.000000e-01 0.000000e+00
      endloop
   endfacet
   facet normal -0.000000e+00 -0.000000e+00 -1.000000e+00
      outer loop
         vertex -1.000000e+00 1.302888e-15 0.000000e+00
         vertex -5.000000e-01 -1.339746e-01 0.000000e+00
         vertex -2.928932e-01 -2.928932e-01 0.000000e+00
      endloop
   endfacet
   facet normal -0.000000e+00 -0.000000e+00 -1.000000e+00
      outer loop
         vertex -1.000000e+00 1.302888e-15 0.000000e+00
         vertex -7.411810e-01 -3.407417e-02 0.000000e+00
         vertex -5.000000e-01 -1.339746e-01 0.000000e+00
      endloop
   endfacet
   facet normal 0.000000e+00 -0.000000e+00 -1.000000e+00
      outer loop
         vertex -5.900000e+01 -4.300000e+01 0.000000e+00
         vertex -5.800000e+01 7.103777e-15 0.000000e+00
         vertex -5.800000e+01 -4.400000e+01 0.000000e+00
      endloop
   endfacet
   facet normal 0.000000e+00 -0.000000e+00 -1.000000e+00
      outer loop
         vertex -5.900000e+01 -1.000000e+00 0.000000e+00
         vertex -5.886602e+01 -5.000000e-01 0.000000e+00
         vertex -5.800000e+01 7.103777e-15 0.000000e+00
      endloop
   endfacet
   facet normal 0.000000e+00 0.000000e+00 -1.000000e+00
      outer loop
         vertex -5.870711e+01 -4.370711e+01 0.000000e+00
         vertex -5.896593e+01 -4.325882e+01 0.000000e+00
         vertex -5.825882e+01 -4.396593e+01 0.000000e+00
      endloop
   endfacet
   facet normal 0.000000e+00 0.000000e+00 -1.000000e+00
      outer loop
         vertex -5.583070e-15 -4.300000e+01 0.000000e+00
         vertex -1.000000e+00 -4.400000e+01 0.000000e+00
         vertex -1.000000e+00 1.302888e-15 0.000000e+00
      endloop
   endfacet
   facet normal -0.000000e+00 0.000000e+00 -1.000000e+00
      outer loop
         vertex -3.407417e-02 -4.325882e+01 0.000000e+00
         vertex -2.928932e-01 -4.370711e+01 0.000000e+00
         vertex -7.411810e-01 -4.396593e+01 0.000000e+00
      endloop
   endfacet
   facet normal -1.305210e-01 -9.914455e-01 0.000000e+00
      outer loop
         vertex -5.825882e+01 -4.396593e+01 5.000000e+00
         vertex -5.825882e+01 -4.396593e+01 0.000000e+00
         vertex -5.800000e+01 -4.400000e+01 0.000000e+00
      endloop
   endfacet
   facet normal -1.305210e-01 -9.914455e-01 0.000000e+00
      outer loop
         vertex -5.800000e+01 -4.400000e+01 5.000000e+00
         vertex -5.825882e+01 -4.396593e+01 5.000000e+00
         vertex -5.800000e+01 -4.400000e+01 0.000000e+00
      endloop
   endfacet
   facet normal -3.826929e-01 -9.238756e-01 0.000000e+00
      outer loop
         vertex -5.850000e+01 -4.386602e+01 5.000000e+00
         vertex -5.850000e+01 -4.386602e+01 0.000000e+00
         vertex -5.825882e+01 -4.396593e+01 0.000000e+00
      endloop
   endfacet
   facet normal -3.826929e-01 -9.238756e-01 0.000000e+00
      outer loop
         vertex -5.825882e+01 -4.396593e+01 5.000000e+00
         vertex -5.850000e+01 -4.386602e+01 5.000000e+00
         vertex -5.825882e+01 -4.396593e+01 0.000000e+00
      endloop
   endfacet
   facet normal -6.087548e-01 -7.933584e-01 0.000000e+00
      outer loop
         vertex -5.870711e+01 -4.370711e+01 5.000000e+00
         vertex -5.870711e+01 -4.370711e+01 0.000000e+00
         vertex -5.850000e+01 -4.386602e+01 0.000000e+00
      endloop
   endfacet
   facet normal -6.087548e-01 -7.933584e-01 0.000000e+00
      outer loop
         vertex -5.850000e+01 -4.386602e+01 5.000000e+00
         vertex -5.870711e+01 -4.370711e+01 5.000000e+00
         vertex -5.850000e+01 -4.386602e+01 0.000000e+00
      endloop
   endfacet
   facet normal -7.933584e-01 -6.087548e-01 0.000000e+00
      outer loop
         vertex -5.886602e+01 -4.350000e+01 5.000000e+00
         vertex -5.886602e+01 -4.350000e+01 0.000000e+00
         vertex -5.870711e+01 -4.370711e+01 0.000000e+00
      endloop
   endfacet
   facet normal -7.933584e-01 -6.087548e-01 0.000000e+00
      outer loop
         vertex -5.870711e+01 -4.370711e+01 5.000000e+00
         vertex -5.886602e+01 -4.350000e+01 5.000000e+00
         vertex -5.870711e+01 -4.370711e+01 0.000000e+00
      endloop
   endfacet
   facet normal -9.238756e-01 -3.826929e-01 0.000000e+00
      outer loop
         vertex -5.896593e+01 -4.325882e+01 5.000000e+00
         vertex -5.896593e+01 -4.325882e+01 0.000000e+00
         vertex -5.886602e+01 -4.350000e+01 0.000000e+00
      endloop
   endfacet
   facet normal -9.238756e-01 -3.826929e-01 0.000000e+00
      outer loop
         vertex -5.886602e+01 -4.350000e+01 5.000000e+00
         vertex -5.896593e+01 -4.325882e+01 5.000000e+00
         vertex -5.886602e+01 -4.350000e+01 0.000000e+00
      endloop
   endfacet
   facet normal -9.914455e-01 -1.305210e-01 0.000000e+00
      outer loop
         vertex -5.900000e+01 -4.300000e+01 5.000000e+00
         vertex -5.900000e+01 -4.300000e+01 0.000000e+00
         vertex -5.896593e+01 -4.325882e+01 0.000000e+00
      endloop
   endfacet
   facet normal -9.914455e-01 -1.305210e-01 0.000000e+00
      outer loop
         vertex -5.896593e+01 -4.325882e+01 5.000000e+00
         vertex -5.900000e+01 -4.300000e+01 5.000000e+00
         vertex -5.896593e+01 -4.325882e+01 0.000000e+00
      endloop
   endfacet
   facet normal -9.914455e-01 1.305213e-01 0.000000e+00
      outer loop
         vertex -5.896593e+01 -7.411810e-01 5.000000e+00
         vertex -5.896593e+01 -7.411810e-01 0.000000e+00
         vertex -5.900000e+01 -1.000000e+00 0.000000e+00
      endloop
   endfacet
   facet normal -9.914455e-01 1.305213e-01 0.000000e+00
      outer loop
         vertex -5.900000e+01 -1.000000e+00 5.000000e+00
         vertex -5.896593e+01 -7.411810e-01 5.000000e+00
         vertex -5.900000e+01 -1.000000e+00 0.000000e+00
      endloop
   endfacet
   facet normal -9.238759e-01 3.826922e-01 0.000000e+00
      outer loop
         vertex -5.886602e+01 -5.000000e-01 5.000000e+00
         vertex -5.886602e+01 -5.000000e-01 0.000000e+00
         vertex -5.896593e+01 -7.411810e-01 0.000000e+00
      endloop
   endfacet
   facet normal -9.238759e-01 3.826922e-01 0.000000e+00
      outer loop
         vertex -5.896593e+01 -7.411810e-01 5.000000e+00
         vertex -5.886602e+01 -5.000000e-01 5.000000e+00
         vertex -5.896593e+01 -7.411810e-01 0.000000e+00
      endloop
   endfacet
   facet normal -7.933573e-01 6.087563e-01 0.000000e+00
      outer loop
         vertex -5.870711e+01 -2.928932e-01 5.000000e+00
         vertex -5.870711e+01 -2.928932e-01 0.000000e+00
         vertex -5.886602e+01 -5.000000e-01 0.000000e+00
      endloop
   endfacet
   facet normal -7.933573e-01 6.087563e-01 0.000000e+00
      outer loop
         vertex -5.886602e+01 -5.000000e-01 5.000000e+00
         vertex -5.870711e+01 -2.928932e-01 5.000000e+00
         vertex -5.886602e+01 -5.000000e-01 0.000000e+00
      endloop
   endfacet
   facet normal -6.087600e-01 7.933544e-01 0.000000e+00
      outer loop
         vertex -5.850000e+01 -1.339746e-01 5.000000e+00
         vertex -5.850000e+01 -1.339746e-01 0.000000e+00
         vertex -5.870711e+01 -2.928932e-01 0.000000e+00
      endloop
   endfacet
   facet normal -6.087600e-01 7.933544e-01 0.000000e+00
      outer loop
         vertex -5.870711e+01 -2.928932e-01 5.000000e+00
         vertex -5.850000e+01 -1.339746e-01 5.000000e+00
         vertex -5.870711e+01 -2.928932e-01 0.000000e+00
      endloop
   endfacet
   facet normal -3.826842e-01 9.238792e-01 0.000000e+00
      outer loop
         vertex -5.825882e+01 -3.407417e-02 5.000000e+00
         vertex -5.825882e+01 -3.407417e-02 0.000000e+00
         vertex -5.850000e+01 -1.339746e-01 0.000000e+00
      endloop
   endfacet
   facet normal -3.826842e-01 9.238792e-01 0.000000e+00
      outer loop
         vertex -5.850000e+01 -1.339746e-01 5.000000e+00
         vertex -5.825882e+01 -3.407417e-02 5.000000e+00
         vertex -5.850000e+01 -1.339746e-01 0.000000e+00
      endloop
   endfacet
   facet normal -1.305259e-01 9.914449e-01 0.000000e+00
      outer loop
         vertex -5.800000e+01 7.105427e-15 5.000000e+00
         vertex -5.800000e+01 7.105427e-15 0.000000e+00
         vertex -5.825882e+01 -3.407417e-02 0.000000e+00
      endloop
   endfacet
   facet normal -1.305259e-01 9.914449e-01 0.000000e+00
      outer loop
         vertex -5.825882e+01 -3.407417e-02 5.000000e+00
         vertex -5.800000e+01 7.105427e-15 5.000000e+00
         vertex -5.825882e+01 -3.407417e-02 0.000000e+00
      endloop
   endfacet
   facet normal 9.914449e-01 -1.305259e-01 0.000000e+00
      outer loop
         vertex -3.407417e-02 -4.325882e+01 5.000000e+00
         vertex -3.407417e-02 -4.325882e+01 0.000000e+00
         vertex -6.217249e-15 -4.300000e+01 0.000000e+00
      endloop
   endfacet
   facet normal 9.914449e-01 -1.305259e-01 0.000000e+00
      outer loop
         vertex -6.217249e-15 -4.300000e+01 5.000000e+00
         vertex -3.407417e-02 -4.325882e+01 5.000000e+00
         vertex -6.217249e-15 -4.300000e+01 0.000000e+00
      endloop
   endfacet
   facet normal 9.238792e-01 -3.826842e-01 0.000000e+00
      outer loop
         vertex -1.339746e-01 -4.350000e+01 5.000000e+00
         vertex -1.339746e-01 -4.350000e+01 0.000000e+00
         vertex -3.407417e-02 -4.325882e+01 0.000000e+00
      endloop
   endfacet
   facet normal 9.238792e-01 -3.826842e-01 0.000000e+00
      outer loop
         vertex -3.407417e-02 -4.325882e+01 5.000000e+00
         vertex -1.339746e-01 -4.350000e+01 5.000000e+00
         vertex -3.407417e-02 -4.325882e+01 0.000000e+00
      endloop
   endfacet
   facet normal 7.933544e-01 -6.087600e-01 0.000000e+00
      outer loop
         vertex -2.928932e-01 -4.370711e+01 5.000000e+00
         vertex -2.928932e-01 -4.370711e+01 0.000000e+00
         vertex -1.339746e-01 -4.350000e+01 0.000000e+00
      endloop
   endfacet
   facet normal 7.933544e-01 -6.087600e-01 0.000000e+00
      outer loop
         vertex -1.339746e-01 -4.350000e+01 5.000000e+00
         vertex -2.928932e-01 -4.370711e+01 5.000000e+00
         vertex -1.339746e-01 -4.350000e+01 0.000000e+00
      endloop
   endfacet
   facet normal 6.087563e-01 -7.933573e-01 0.000000e+00
      outer loop
         vertex -5.000000e-01 -4.386602e+01 5.000000e+00
         vertex -5.000000e-01 -4.386602e+01 0.000000e+00
         vertex -2.928932e-01 -4.370711e+01 0.000000e+00
      endloop
   endfacet
   facet normal 6.087563e-01 -7.933573e-01 0.000000e+00
      outer loop
         vertex -2.928932e-01 -4.370711e+01 5.000000e+00
         vertex -5.000000e-01 -4.386602e+01 5.000000e+00
         vertex -2.928932e-01 -4.370711e+01 0.000000e+00
      endloop
   endfacet
   facet normal 3.826922e-01 -9.238759e-01 0.000000e+00
      outer loop
         vertex -7.411810e-01 -4.396593e+01 5.000000e+00
         vertex -7.411810e-01 -4.396593e+01 0.000000e+00
         vertex -5.000000e-01 -4.386602e+01 0.000000e+00
      endloop
   endfacet
   facet normal 3.826922e-01 -9.238759e-01 0.000000e+00
      outer loop
         vertex -5.000000e-01 -4.386602e+01 5.000000e+00
         vertex -7.411810e-01 -4.396593e+01 5.000000e+00
         vertex -5.000000e-01 -4.386602e+01 0.000000e+00
      endloop
   endfacet
   facet normal 1.305213e-01 -9.914455e-01 0.000000e+00
      outer loop
         vertex -1.000000e+00 -4.400000e+01 5.000000e+00
         vertex -1.000000e+00 -4.400000e+01 0.000000e+00
         vertex -7.411810e-01 -4.396593e+01 0.000000e+00
      endloop
   endfacet
   facet normal 1.305213e-01 -9.914455e-01 0.000000e+00
      outer loop
         vertex -7.411810e-01 -4.396593e+01 5.000000e+00
         vertex -1.000000e+00 -4.400000e+01 5.000000e+00
         vertex -7.411810e-01 -4.396593e+01 0.000000e+00
      endloop
   endfacet
   facet normal 1.305262e-01 9.914449e-01 -0.000000e+00
      outer loop
         vertex -7.411810e-01 -3.407417e-02 5.000000e+00
         vertex -7.411810e-01 -3.407417e-02 0.000000e+00
         vertex -1.000000e+00 3.663736e-15 0.000000e+00
      endloop
   endfacet
   facet normal 1.305262e-01 9.914449e-01 0.000000e+00
      outer loop
         vertex -1.000000e+00 3.663736e-15 5.000000e+00
         vertex -7.411810e-01 -3.407417e-02 5.000000e+00
         vertex -1.000000e+00 3.663736e-15 0.000000e+00
      endloop
   endfacet
   facet normal 3.826834e-01 9.238795e-01 -0.000000e+00
      outer loop
         vertex -5.000000e-01 -1.339746e-01 5.000000e+00
         vertex -5.000000e-01 -1.339746e-01 0.000000e+00
         vertex -7.411810e-01 -3.407417e-02 0.000000e+00
      endloop
   endfacet
   facet normal 3.826834e-01 9.238795e-01 0.000000e+00
      outer loop
         vertex -7.411810e-01 -3.407417e-02 5.000000e+00
         vertex -5.000000e-01 -1.339746e-01 5.000000e+00
         vertex -7.411810e-01 -3.407417e-02 0.000000e+00
      endloop
   endfacet
   facet normal 6.087615e-01 7.933533e-01 -0.000000e+00
      outer loop
         vertex -2.928932e-01 -2.928932e-01 5.000000e+00
         vertex -2.928932e-01 -2.928932e-01 0.000000e+00
         vertex -5.000000e-01 -1.339746e-01 0.000000e+00
      endloop
   endfacet
   facet normal 6.087615e-01 7.933533e-01 0.000000e+00
      outer loop
         vertex -5.000000e-01 -1.339746e-01 5.000000e+00
         vertex -2.928932e-01 -2.928932e-01 5.000000e+00
         vertex -5.000000e-01 -1.339746e-01 0.000000e+00
      endloop
   endfacet
   facet normal 7.933533e-01 6.087615e-01 -0.000000e+00
      outer loop
         vertex -1.339746e-01 -5.000000e-01 5.000000e+00
         vertex -1.339746e-01 -5.000000e-01 0.000000e+00
         vertex -2.928932e-01 -2.928932e-01 0.000000e+00
      endloop
   endfacet
   facet normal 7.933533e-01 6.087615e-01 0.000000e+00
      outer loop
         vertex -2.928932e-01 -2.928932e-01 5.000000e+00
         vertex -1.339746e-01 -5.000000e-01 5.000000e+00
         vertex -2.928932e-01 -2.928932e-01 0.000000e+00
      endloop
   endfacet
   facet normal 9.238795e-01 3.826834e-01 -0.000000e+00
      outer loop
         vertex -3.407417e-02 -7.411810e-01 5.000000e+00
         vertex -3.407417e-02 -7.411810e-01 0.000000e+00
         vertex -1.339746e-01 -5.000000e-01 0.000000e+00
      endloop
   endfacet
   facet normal 9.238795e-01 3.826834e-01 0.000000e+00
      outer loop
         vertex -1.339746e-01 -5.000000e-01 5.000000e+00
         vertex -3.407417e-02 -7.411810e-01 5.000000e+00
         vertex -1.339746e-01 -5.000000e-01 0.000000e+00
      endloop
   endfacet
   facet normal 9.914449e-01 1.305262e-01 -0.000000e+00
      outer loop
         vertex -2.220446e-16 -1.000000e+00 5.000000e+00
         vertex -2.220446e-16 -1.000000e+00 0.000000e+00
         vertex -3.407417e-02 -7.411810e-01 0.000000e+00
      endloop
   endfacet
   facet normal 9.914449e-01 1.305262e-01 0.000000e+00
      outer loop
         vertex -3.407417e-02 -7.411810e-01 5.000000e+00
         vertex -2.220446e-16 -1.000000e+00 5.000000e+00
         vertex -3.407417e-02 -7.411810e-01 0.000000e+00
      endloop
   endfacet
endsolid
